G04*
G04 #@! TF.GenerationSoftware,Altium Limited,Altium Designer,20.2.4 (192)*
G04*
G04 Layer_Color=2752767*
%FSLAX25Y25*%
%MOIN*%
G70*
G04*
G04 #@! TF.SameCoordinates,11A53595-3FD0-489E-A7EA-862F9466251B*
G04*
G04*
G04 #@! TF.FilePolarity,Positive*
G04*
G01*
G75*
%ADD20C,0.01500*%
%ADD21C,0.01000*%
%ADD22C,0.00200*%
%ADD23C,0.01600*%
D20*
X45550Y28650D02*
X1286006D01*
X45550Y13650D02*
X1286006D01*
X45550Y-1350D02*
X1286006D01*
Y43650D01*
X45550D02*
X1286006D01*
X45550Y-1350D02*
Y43650D01*
X1145746Y-1350D02*
Y43650D01*
X1059170Y-1350D02*
Y43650D01*
X925809Y-1350D02*
Y43650D01*
X792448Y-1350D02*
Y43650D01*
X707072Y-1350D02*
Y43650D01*
X632092Y-1350D02*
Y43650D01*
X557513Y-1350D02*
Y43650D01*
X498528Y-1350D02*
Y43650D01*
X379562Y-1350D02*
Y43650D01*
X306182Y-1350D02*
Y43650D01*
X255594Y-1350D02*
Y43650D01*
X148626Y-1350D02*
Y43650D01*
X100638Y-1350D02*
Y43650D01*
D21*
X51529Y18150D02*
X58196D01*
Y24817D01*
X51529D02*
X58196D01*
X51529Y18150D02*
Y24817D01*
X1150246Y21149D02*
X1154244D01*
X1063670D02*
X1067668D01*
X636592Y22149D02*
X638592Y18150D01*
X640591Y22149D01*
X646589Y24148D02*
X642591D01*
Y21149D01*
X644590Y22149D01*
X645589D01*
X646589Y21149D01*
Y19150D01*
X645589Y18150D01*
X643590D01*
X642591Y19150D01*
X648589Y23148D02*
X649588Y24148D01*
X651588D01*
X652587Y23148D01*
Y19150D01*
X651588Y18150D01*
X649588D01*
X648589Y19150D01*
Y23148D01*
X654587Y24148D02*
Y18150D01*
Y21149D01*
X655586Y22149D01*
X657586D01*
X658585Y21149D01*
Y18150D01*
X660585Y23148D02*
X661584Y24148D01*
X663584D01*
X664583Y23148D01*
Y22149D01*
X663584Y21149D01*
X662584D01*
X663584D01*
X664583Y20149D01*
Y19150D01*
X663584Y18150D01*
X661584D01*
X660585Y19150D01*
X666583Y23148D02*
X667582Y24148D01*
X669582D01*
X670581Y23148D01*
Y19150D01*
X669582Y18150D01*
X667582D01*
X666583Y19150D01*
Y23148D01*
X672581Y18150D02*
Y22149D01*
X673581D01*
X674580Y21149D01*
Y18150D01*
Y21149D01*
X675580Y22149D01*
X676580Y21149D01*
Y18150D01*
X678579Y23148D02*
X679578Y24148D01*
X681578D01*
X682578Y23148D01*
Y19150D01*
X681578Y18150D01*
X679578D01*
X678579Y19150D01*
Y23148D01*
X684577Y18150D02*
Y22149D01*
X685577D01*
X686576Y21149D01*
Y18150D01*
Y21149D01*
X687576Y22149D01*
X688576Y21149D01*
Y18150D01*
X690575Y22149D02*
X694574Y18150D01*
X692574Y20149D01*
X694574Y22149D01*
X690575Y18150D01*
X696573Y23148D02*
X697573Y24148D01*
X699572D01*
X700572Y23148D01*
Y19150D01*
X699572Y18150D01*
X697573D01*
X696573Y19150D01*
Y23148D01*
X562013Y18150D02*
Y24148D01*
X565012D01*
X566011Y23148D01*
Y21149D01*
X565012Y20149D01*
X562013D01*
X564012D02*
X566011Y18150D01*
X569010D02*
X571010D01*
X572009Y19150D01*
Y21149D01*
X571010Y22149D01*
X569010D01*
X568011Y21149D01*
Y19150D01*
X569010Y18150D01*
X574009Y22149D02*
Y19150D01*
X575008Y18150D01*
X578007D01*
Y22149D01*
X580007Y18150D02*
Y22149D01*
X583006D01*
X584005Y21149D01*
Y18150D01*
X590004Y24148D02*
Y18150D01*
X587005D01*
X586005Y19150D01*
Y21149D01*
X587005Y22149D01*
X590004D01*
X595002Y18150D02*
X593003D01*
X592003Y19150D01*
Y21149D01*
X593003Y22149D01*
X595002D01*
X596002Y21149D01*
Y20149D01*
X592003D01*
X602000Y24148D02*
Y18150D01*
X599001D01*
X598001Y19150D01*
Y21149D01*
X599001Y22149D01*
X602000D01*
X503028Y24148D02*
Y20149D01*
X505027Y18150D01*
X507026Y20149D01*
Y24148D01*
X509026Y18150D02*
X511025D01*
X510026D01*
Y22149D01*
X509026D01*
X515024D02*
X517023D01*
X518023Y21149D01*
Y18150D01*
X515024D01*
X514024Y19150D01*
X515024Y20149D01*
X518023D01*
X384062Y24148D02*
X388061D01*
X386062D01*
Y18150D01*
X391060D02*
X393059D01*
X394059Y19150D01*
Y21149D01*
X393059Y22149D01*
X391060D01*
X390060Y21149D01*
Y19150D01*
X391060Y18150D01*
X396058Y16151D02*
Y22149D01*
X399058D01*
X400057Y21149D01*
Y19150D01*
X399058Y18150D01*
X396058D01*
X408055Y21149D02*
X412053D01*
X420051Y24148D02*
Y18150D01*
X423050D01*
X424049Y19150D01*
Y20149D01*
X423050Y21149D01*
X420051D01*
X423050D01*
X424049Y22149D01*
Y23148D01*
X423050Y24148D01*
X420051D01*
X427048Y18150D02*
X429048D01*
X430047Y19150D01*
Y21149D01*
X429048Y22149D01*
X427048D01*
X426049Y21149D01*
Y19150D01*
X427048Y18150D01*
X433046Y23148D02*
Y22149D01*
X432047D01*
X434046D01*
X433046D01*
Y19150D01*
X434046Y18150D01*
X438045Y23148D02*
Y22149D01*
X437045D01*
X439045D01*
X438045D01*
Y19150D01*
X439045Y18150D01*
X443043D02*
X445043D01*
X446042Y19150D01*
Y21149D01*
X445043Y22149D01*
X443043D01*
X442043Y21149D01*
Y19150D01*
X443043Y18150D01*
X448042D02*
Y22149D01*
X449041D01*
X450041Y21149D01*
Y18150D01*
Y21149D01*
X451041Y22149D01*
X452040Y21149D01*
Y18150D01*
X310682D02*
Y24148D01*
X313681D01*
X314681Y23148D01*
Y21149D01*
X313681Y20149D01*
X310682D01*
X312682D02*
X314681Y18150D01*
X317680D02*
X319679D01*
X320679Y19150D01*
Y21149D01*
X319679Y22149D01*
X317680D01*
X316680Y21149D01*
Y19150D01*
X317680Y18150D01*
X322678Y22149D02*
Y19150D01*
X323678Y18150D01*
X326677D01*
Y22149D01*
X328676Y18150D02*
Y22149D01*
X331675D01*
X332675Y21149D01*
Y18150D01*
X338673Y24148D02*
Y18150D01*
X335674D01*
X334674Y19150D01*
Y21149D01*
X335674Y22149D01*
X338673D01*
X260094Y18150D02*
Y24148D01*
X263094D01*
X264093Y23148D01*
Y21149D01*
X263094Y20149D01*
X260094D01*
X266093Y24148D02*
X270091D01*
X268092D01*
Y18150D01*
X272091Y24148D02*
Y18150D01*
Y21149D01*
X276089D01*
Y24148D01*
Y18150D01*
X153126D02*
X155125D01*
X154125D01*
Y24148D01*
X153126Y23148D01*
X158124Y18150D02*
X160123D01*
X159124D01*
Y24148D01*
X158124Y23148D01*
X163122Y18150D02*
Y19150D01*
X164122D01*
Y18150D01*
X163122D01*
X168121Y23148D02*
X169120Y24148D01*
X171120D01*
X172119Y23148D01*
Y22149D01*
X171120Y21149D01*
X172119Y20149D01*
Y19150D01*
X171120Y18150D01*
X169120D01*
X168121Y19150D01*
Y20149D01*
X169120Y21149D01*
X168121Y22149D01*
Y23148D01*
X169120Y21149D02*
X171120D01*
X174119Y18150D02*
X176118D01*
X175119D01*
Y24148D01*
X174119Y23148D01*
X179117Y18150D02*
Y22149D01*
X180117D01*
X181116Y21149D01*
Y18150D01*
Y21149D01*
X182116Y22149D01*
X183116Y21149D01*
Y18150D01*
X185115D02*
X187115D01*
X186115D01*
Y22149D01*
X185115D01*
X190114Y18150D02*
X192113D01*
X191113D01*
Y24148D01*
X190114D01*
X203109Y18150D02*
X201110Y20149D01*
Y22149D01*
X203109Y24148D01*
X206108Y23148D02*
X207108Y24148D01*
X209107D01*
X210107Y23148D01*
Y19150D01*
X209107Y18150D01*
X207108D01*
X206108Y19150D01*
Y23148D01*
X212106Y18150D02*
Y19150D01*
X213106D01*
Y18150D01*
X212106D01*
X217105Y23148D02*
X218105Y24148D01*
X220104D01*
X221104Y23148D01*
Y22149D01*
X220104Y21149D01*
X219104D01*
X220104D01*
X221104Y20149D01*
Y19150D01*
X220104Y18150D01*
X218105D01*
X217105Y19150D01*
X223103Y23148D02*
X224103Y24148D01*
X226102D01*
X227102Y23148D01*
Y19150D01*
X226102Y18150D01*
X224103D01*
X223103Y19150D01*
Y23148D01*
X229101D02*
X230101Y24148D01*
X232100D01*
X233100Y23148D01*
Y19150D01*
X232100Y18150D01*
X230101D01*
X229101Y19150D01*
Y23148D01*
X235099Y18150D02*
Y22149D01*
X236099D01*
X237098Y21149D01*
Y18150D01*
Y21149D01*
X238098Y22149D01*
X239098Y21149D01*
Y18150D01*
X241097D02*
Y22149D01*
X242097D01*
X243096Y21149D01*
Y18150D01*
Y21149D01*
X244096Y22149D01*
X245096Y21149D01*
Y18150D01*
X247095D02*
X249095Y20149D01*
Y22149D01*
X247095Y24148D01*
X109136Y9148D02*
X105138D01*
Y6149D01*
X107137Y7149D01*
X108137D01*
X109136Y6149D01*
Y4150D01*
X108137Y3150D01*
X106137D01*
X105138Y4150D01*
X117134Y9148D02*
X121132D01*
X119133D01*
Y3150D01*
X124131D02*
X126131D01*
X127130Y4150D01*
Y6149D01*
X126131Y7149D01*
X124131D01*
X123132Y6149D01*
Y4150D01*
X124131Y3150D01*
X130130Y8148D02*
Y7149D01*
X129130D01*
X131129D01*
X130130D01*
Y4150D01*
X131129Y3150D01*
X135128Y7149D02*
X137127D01*
X138127Y6149D01*
Y3150D01*
X135128D01*
X134128Y4150D01*
X135128Y5149D01*
X138127D01*
X140126Y3150D02*
X142126D01*
X141126D01*
Y9148D01*
X140126D01*
X109136Y24148D02*
X105138D01*
Y21149D01*
X107137Y22149D01*
X108137D01*
X109136Y21149D01*
Y19150D01*
X108137Y18150D01*
X106137D01*
X105138Y19150D01*
D22*
X20300Y7800D02*
X22300D01*
Y9800D01*
X20300D02*
X22300D01*
X20300Y7800D02*
Y9800D01*
X16837Y12047D02*
X18837D01*
Y14047D01*
X16837D02*
X18837D01*
X16837Y12047D02*
Y14047D01*
X3037Y8847D02*
X5037D01*
Y10847D01*
X3037D02*
X5037D01*
X3037Y8847D02*
Y10847D01*
X6937Y5247D02*
X8937D01*
Y7247D01*
X6937D02*
X8937D01*
X6937Y5247D02*
Y7247D01*
X19537Y4047D02*
X21537D01*
Y6047D01*
X19537D02*
X21537D01*
X19537Y4047D02*
Y6047D01*
D23*
X1150246Y33150D02*
Y40348D01*
X1153844D01*
X1155044Y39148D01*
Y36749D01*
X1153844Y35549D01*
X1150246D01*
X1152645D02*
X1155044Y33150D01*
X1158643D02*
X1161042D01*
X1162242Y34350D01*
Y36749D01*
X1161042Y37949D01*
X1158643D01*
X1157443Y36749D01*
Y34350D01*
X1158643Y33150D01*
X1164641Y37949D02*
Y34350D01*
X1165841Y33150D01*
X1169439D01*
Y37949D01*
X1173038Y39148D02*
Y37949D01*
X1171839D01*
X1174238D01*
X1173038D01*
Y34350D01*
X1174238Y33150D01*
X1181435D02*
X1179036D01*
X1177837Y34350D01*
Y36749D01*
X1179036Y37949D01*
X1181435D01*
X1182635Y36749D01*
Y35549D01*
X1177837D01*
X1189833Y40348D02*
Y33150D01*
X1186234D01*
X1185034Y34350D01*
Y36749D01*
X1186234Y37949D01*
X1189833D01*
X1199430Y33150D02*
Y40348D01*
X1203028D01*
X1204228Y39148D01*
Y36749D01*
X1203028Y35549D01*
X1199430D01*
X1207827Y37949D02*
X1210226D01*
X1211426Y36749D01*
Y33150D01*
X1207827D01*
X1206627Y34350D01*
X1207827Y35549D01*
X1211426D01*
X1215025Y39148D02*
Y37949D01*
X1213825D01*
X1216224D01*
X1215025D01*
Y34350D01*
X1216224Y33150D01*
X1219823Y40348D02*
Y33150D01*
Y36749D01*
X1221023Y37949D01*
X1223422D01*
X1224621Y36749D01*
Y33150D01*
X1234218Y40348D02*
Y33150D01*
X1239017D01*
X1245015D02*
X1242616D01*
X1241416Y34350D01*
Y36749D01*
X1242616Y37949D01*
X1245015D01*
X1246214Y36749D01*
Y35549D01*
X1241416D01*
X1248614Y33150D02*
Y37949D01*
X1252213D01*
X1253412Y36749D01*
Y33150D01*
X1258211Y30751D02*
X1259410D01*
X1260610Y31950D01*
Y37949D01*
X1257011D01*
X1255811Y36749D01*
Y34350D01*
X1257011Y33150D01*
X1260610D01*
X1264209Y39148D02*
Y37949D01*
X1263009D01*
X1265408D01*
X1264209D01*
Y34350D01*
X1265408Y33150D01*
X1269007Y40348D02*
Y33150D01*
Y36749D01*
X1270207Y37949D01*
X1272606D01*
X1273806Y36749D01*
Y33150D01*
X1063670Y40348D02*
Y33150D01*
Y36749D01*
X1068468D01*
Y40348D01*
Y33150D01*
X1072067D02*
X1074466D01*
X1075666Y34350D01*
Y36749D01*
X1074466Y37949D01*
X1072067D01*
X1070867Y36749D01*
Y34350D01*
X1072067Y33150D01*
X1078065D02*
X1080464D01*
X1079265D01*
Y40348D01*
X1078065D01*
X1087662Y33150D02*
X1085263D01*
X1084063Y34350D01*
Y36749D01*
X1085263Y37949D01*
X1087662D01*
X1088861Y36749D01*
Y35549D01*
X1084063D01*
X1098458Y40348D02*
Y33150D01*
X1103257D01*
X1109255D02*
X1106856D01*
X1105656Y34350D01*
Y36749D01*
X1106856Y37949D01*
X1109255D01*
X1110454Y36749D01*
Y35549D01*
X1105656D01*
X1112854Y33150D02*
Y37949D01*
X1116453D01*
X1117652Y36749D01*
Y33150D01*
X1122451Y30751D02*
X1123650D01*
X1124850Y31950D01*
Y37949D01*
X1121251D01*
X1120051Y36749D01*
Y34350D01*
X1121251Y33150D01*
X1124850D01*
X1128449Y39148D02*
Y37949D01*
X1127249D01*
X1129648D01*
X1128449D01*
Y34350D01*
X1129648Y33150D01*
X1133247Y40348D02*
Y33150D01*
Y36749D01*
X1134447Y37949D01*
X1136846D01*
X1138046Y36749D01*
Y33150D01*
X930309Y40348D02*
Y33150D01*
Y36749D01*
X935107D01*
Y40348D01*
Y33150D01*
X938706D02*
X941105D01*
X942305Y34350D01*
Y36749D01*
X941105Y37949D01*
X938706D01*
X937506Y36749D01*
Y34350D01*
X938706Y33150D01*
X944704D02*
X947103D01*
X945904D01*
Y40348D01*
X944704D01*
X954301Y33150D02*
X951902D01*
X950702Y34350D01*
Y36749D01*
X951902Y37949D01*
X954301D01*
X955501Y36749D01*
Y35549D01*
X950702D01*
X965098Y40348D02*
X969896D01*
X967497D01*
Y33150D01*
X973495D02*
X975894D01*
X977094Y34350D01*
Y36749D01*
X975894Y37949D01*
X973495D01*
X972295Y36749D01*
Y34350D01*
X973495Y33150D01*
X979493D02*
X981892D01*
X980692D01*
Y40348D01*
X979493D01*
X989090Y33150D02*
X986691D01*
X985491Y34350D01*
Y36749D01*
X986691Y37949D01*
X989090D01*
X990289Y36749D01*
Y35549D01*
X985491D01*
X992689Y37949D02*
Y33150D01*
Y35549D01*
X993888Y36749D01*
X995088Y37949D01*
X996288D01*
X1001086D02*
X1003485D01*
X1004685Y36749D01*
Y33150D01*
X1001086D01*
X999886Y34350D01*
X1001086Y35549D01*
X1004685D01*
X1007084Y33150D02*
Y37949D01*
X1010683D01*
X1011882Y36749D01*
Y33150D01*
X1019080Y37949D02*
X1015481D01*
X1014282Y36749D01*
Y34350D01*
X1015481Y33150D01*
X1019080D01*
X1025078D02*
X1022679D01*
X1021479Y34350D01*
Y36749D01*
X1022679Y37949D01*
X1025078D01*
X1026278Y36749D01*
Y35549D01*
X1021479D01*
X1038274Y33150D02*
X1035875Y35549D01*
Y37949D01*
X1038274Y40348D01*
X1041873Y36749D02*
X1046671D01*
X1049070Y33150D02*
X1051470Y35549D01*
Y37949D01*
X1049070Y40348D01*
X796948D02*
Y33150D01*
Y36749D01*
X801746D01*
Y40348D01*
Y33150D01*
X805345D02*
X807745D01*
X808944Y34350D01*
Y36749D01*
X807745Y37949D01*
X805345D01*
X804146Y36749D01*
Y34350D01*
X805345Y33150D01*
X811343D02*
X813743D01*
X812543D01*
Y40348D01*
X811343D01*
X820940Y33150D02*
X818541D01*
X817342Y34350D01*
Y36749D01*
X818541Y37949D01*
X820940D01*
X822140Y36749D01*
Y35549D01*
X817342D01*
X831737Y40348D02*
X836535D01*
X834136D01*
Y33150D01*
X840134D02*
X842533D01*
X843733Y34350D01*
Y36749D01*
X842533Y37949D01*
X840134D01*
X838935Y36749D01*
Y34350D01*
X840134Y33150D01*
X846132D02*
X848531D01*
X847332D01*
Y40348D01*
X846132D01*
X855729Y33150D02*
X853330D01*
X852130Y34350D01*
Y36749D01*
X853330Y37949D01*
X855729D01*
X856929Y36749D01*
Y35549D01*
X852130D01*
X859328Y37949D02*
Y33150D01*
Y35549D01*
X860528Y36749D01*
X861727Y37949D01*
X862927D01*
X867725D02*
X870124D01*
X871324Y36749D01*
Y33150D01*
X867725D01*
X866525Y34350D01*
X867725Y35549D01*
X871324D01*
X873723Y33150D02*
Y37949D01*
X877322D01*
X878522Y36749D01*
Y33150D01*
X885719Y37949D02*
X882121D01*
X880921Y36749D01*
Y34350D01*
X882121Y33150D01*
X885719D01*
X891717D02*
X889318D01*
X888118Y34350D01*
Y36749D01*
X889318Y37949D01*
X891717D01*
X892917Y36749D01*
Y35549D01*
X888118D01*
X904913Y33150D02*
X902514Y35549D01*
Y37949D01*
X904913Y40348D01*
X908512Y36749D02*
X913310D01*
X910911Y39148D02*
Y34350D01*
X915710Y33150D02*
X918109Y35549D01*
Y37949D01*
X915710Y40348D01*
X711572D02*
Y33150D01*
X715171D01*
X716370Y34350D01*
Y39148D01*
X715171Y40348D01*
X711572D01*
X722368Y33150D02*
X719969D01*
X718769Y34350D01*
Y36749D01*
X719969Y37949D01*
X722368D01*
X723568Y36749D01*
Y35549D01*
X718769D01*
X725967Y33150D02*
X729566D01*
X730765Y34350D01*
X729566Y35549D01*
X727167D01*
X725967Y36749D01*
X727167Y37949D01*
X730765D01*
X737963D02*
X734364D01*
X733165Y36749D01*
Y34350D01*
X734364Y33150D01*
X737963D01*
X740362Y37949D02*
Y33150D01*
Y35549D01*
X741562Y36749D01*
X742762Y37949D01*
X743961D01*
X747560Y33150D02*
X749959D01*
X748760D01*
Y37949D01*
X747560D01*
X753558Y30751D02*
Y37949D01*
X757157D01*
X758357Y36749D01*
Y34350D01*
X757157Y33150D01*
X753558D01*
X761955Y39148D02*
Y37949D01*
X760756D01*
X763155D01*
X761955D01*
Y34350D01*
X763155Y33150D01*
X766754D02*
X769153D01*
X767953D01*
Y37949D01*
X766754D01*
X773952Y33150D02*
X776351D01*
X777550Y34350D01*
Y36749D01*
X776351Y37949D01*
X773952D01*
X772752Y36749D01*
Y34350D01*
X773952Y33150D01*
X779950D02*
Y37949D01*
X783548D01*
X784748Y36749D01*
Y33150D01*
X636592Y40348D02*
X641391D01*
X638992D01*
Y33150D01*
X647389D02*
X644990D01*
X643790Y34350D01*
Y36749D01*
X644990Y37949D01*
X647389D01*
X648589Y36749D01*
Y35549D01*
X643790D01*
X650988Y33150D02*
Y37949D01*
X652187D01*
X653387Y36749D01*
Y33150D01*
Y36749D01*
X654587Y37949D01*
X655786Y36749D01*
Y33150D01*
X658185Y30751D02*
Y37949D01*
X661784D01*
X662984Y36749D01*
Y34350D01*
X661784Y33150D01*
X658185D01*
X665383D02*
X667782D01*
X666583D01*
Y40348D01*
X665383D01*
X672581Y37949D02*
X674980D01*
X676180Y36749D01*
Y33150D01*
X672581D01*
X671381Y34350D01*
X672581Y35549D01*
X676180D01*
X679778Y39148D02*
Y37949D01*
X678579D01*
X680978D01*
X679778D01*
Y34350D01*
X680978Y33150D01*
X688176D02*
X685777D01*
X684577Y34350D01*
Y36749D01*
X685777Y37949D01*
X688176D01*
X689375Y36749D01*
Y35549D01*
X684577D01*
X562013Y33150D02*
Y40348D01*
X565612D01*
X566811Y39148D01*
Y36749D01*
X565612Y35549D01*
X562013D01*
X570410Y37949D02*
X572809D01*
X574009Y36749D01*
Y33150D01*
X570410D01*
X569210Y34350D01*
X570410Y35549D01*
X574009D01*
X581206Y40348D02*
Y33150D01*
X577608D01*
X576408Y34350D01*
Y36749D01*
X577608Y37949D01*
X581206D01*
X595602Y39148D02*
X594402Y40348D01*
X592003D01*
X590803Y39148D01*
Y37949D01*
X592003Y36749D01*
X594402D01*
X595602Y35549D01*
Y34350D01*
X594402Y33150D01*
X592003D01*
X590803Y34350D01*
X598001Y40348D02*
Y33150D01*
Y36749D01*
X599201Y37949D01*
X601600D01*
X602799Y36749D01*
Y33150D01*
X606398Y37949D02*
X608798D01*
X609997Y36749D01*
Y33150D01*
X606398D01*
X605199Y34350D01*
X606398Y35549D01*
X609997D01*
X612396Y30751D02*
Y37949D01*
X615995D01*
X617195Y36749D01*
Y34350D01*
X615995Y33150D01*
X612396D01*
X623193D02*
X620794D01*
X619594Y34350D01*
Y36749D01*
X620794Y37949D01*
X623193D01*
X624392Y36749D01*
Y35549D01*
X619594D01*
X503028Y40348D02*
Y35549D01*
X505427Y33150D01*
X507826Y35549D01*
Y40348D01*
X510225Y33150D02*
X512625D01*
X511425D01*
Y37949D01*
X510225D01*
X517423D02*
X519822D01*
X521022Y36749D01*
Y33150D01*
X517423D01*
X516223Y34350D01*
X517423Y35549D01*
X521022D01*
X523421Y33150D02*
X528220Y37949D01*
X530619Y33150D02*
Y40348D01*
X534218D01*
X535417Y39148D01*
Y36749D01*
X534218Y35549D01*
X530619D01*
X539016Y37949D02*
X541415D01*
X542615Y36749D01*
Y33150D01*
X539016D01*
X537816Y34350D01*
X539016Y35549D01*
X542615D01*
X549813Y40348D02*
Y33150D01*
X546214D01*
X545014Y34350D01*
Y36749D01*
X546214Y37949D01*
X549813D01*
X384062Y40348D02*
Y33150D01*
X387661D01*
X388861Y34350D01*
Y39148D01*
X387661Y40348D01*
X384062D01*
X391260Y37949D02*
Y33150D01*
Y35549D01*
X392460Y36749D01*
X393659Y37949D01*
X394859D01*
X398458Y33150D02*
X400857D01*
X399657D01*
Y37949D01*
X398458D01*
X404456Y33150D02*
X406855D01*
X405655D01*
Y40348D01*
X404456D01*
X410454Y33150D02*
X412853D01*
X411653D01*
Y40348D01*
X410454D01*
X423650D02*
Y33150D01*
X428448D01*
X432047Y37949D02*
X434446D01*
X435646Y36749D01*
Y33150D01*
X432047D01*
X430847Y34350D01*
X432047Y35549D01*
X435646D01*
X438045Y37949D02*
Y34350D01*
X439244Y33150D01*
X442843D01*
Y31950D01*
X441644Y30751D01*
X440444D01*
X442843Y33150D02*
Y37949D01*
X448841Y33150D02*
X446442D01*
X445243Y34350D01*
Y36749D01*
X446442Y37949D01*
X448841D01*
X450041Y36749D01*
Y35549D01*
X445243D01*
X452440Y37949D02*
Y33150D01*
Y35549D01*
X453640Y36749D01*
X454839Y37949D01*
X456039D01*
X466835Y33150D02*
Y40348D01*
X470434D01*
X471634Y39148D01*
Y36749D01*
X470434Y35549D01*
X466835D01*
X475233Y37949D02*
X477632D01*
X478832Y36749D01*
Y33150D01*
X475233D01*
X474033Y34350D01*
X475233Y35549D01*
X478832D01*
X481231Y33150D02*
X483630D01*
X482431D01*
Y37949D01*
X481231D01*
X487229D02*
Y33150D01*
Y35549D01*
X488428Y36749D01*
X489628Y37949D01*
X490828D01*
X310682Y40348D02*
Y33150D01*
Y36749D01*
X315481D01*
Y40348D01*
Y33150D01*
X319079D02*
X321479D01*
X322678Y34350D01*
Y36749D01*
X321479Y37949D01*
X319079D01*
X317880Y36749D01*
Y34350D01*
X319079Y33150D01*
X325077D02*
X327477D01*
X326277D01*
Y40348D01*
X325077D01*
X334674Y33150D02*
X332275D01*
X331076Y34350D01*
Y36749D01*
X332275Y37949D01*
X334674D01*
X335874Y36749D01*
Y35549D01*
X331076D01*
X345471Y40348D02*
X350269D01*
X347870D01*
Y33150D01*
X352668Y37949D02*
Y34350D01*
X353868Y33150D01*
X357467D01*
Y31950D01*
X356267Y30751D01*
X355068D01*
X357467Y33150D02*
Y37949D01*
X359866Y30751D02*
Y37949D01*
X363465D01*
X364665Y36749D01*
Y34350D01*
X363465Y33150D01*
X359866D01*
X370663D02*
X368264D01*
X367064Y34350D01*
Y36749D01*
X368264Y37949D01*
X370663D01*
X371862Y36749D01*
Y35549D01*
X367064D01*
X260094Y33150D02*
Y40348D01*
X263693D01*
X264893Y39148D01*
Y36749D01*
X263693Y35549D01*
X260094D01*
X267292Y33150D02*
X269691D01*
X268492D01*
Y40348D01*
X267292D01*
X274490Y37949D02*
X276889D01*
X278089Y36749D01*
Y33150D01*
X274490D01*
X273290Y34350D01*
X274490Y35549D01*
X278089D01*
X281687Y39148D02*
Y37949D01*
X280488D01*
X282887D01*
X281687D01*
Y34350D01*
X282887Y33150D01*
X290085D02*
X287686D01*
X286486Y34350D01*
Y36749D01*
X287686Y37949D01*
X290085D01*
X291284Y36749D01*
Y35549D01*
X286486D01*
X298482Y40348D02*
Y33150D01*
X294883D01*
X293684Y34350D01*
Y36749D01*
X294883Y37949D01*
X298482D01*
X153126Y40348D02*
Y33150D01*
Y36749D01*
X157924D01*
Y40348D01*
Y33150D01*
X161523D02*
X163922D01*
X165122Y34350D01*
Y36749D01*
X163922Y37949D01*
X161523D01*
X160323Y36749D01*
Y34350D01*
X161523Y33150D01*
X167521D02*
X169920D01*
X168721D01*
Y40348D01*
X167521D01*
X177118Y33150D02*
X174719D01*
X173519Y34350D01*
Y36749D01*
X174719Y37949D01*
X177118D01*
X178317Y36749D01*
Y35549D01*
X173519D01*
X192713Y39148D02*
X191513Y40348D01*
X189114D01*
X187914Y39148D01*
Y37949D01*
X189114Y36749D01*
X191513D01*
X192713Y35549D01*
Y34350D01*
X191513Y33150D01*
X189114D01*
X187914Y34350D01*
X195112Y33150D02*
X197511D01*
X196312D01*
Y37949D01*
X195112D01*
X201110D02*
X205908D01*
X201110Y33150D01*
X205908D01*
X211907D02*
X209507D01*
X208308Y34350D01*
Y36749D01*
X209507Y37949D01*
X211907D01*
X213106Y36749D01*
Y35549D01*
X208308D01*
X109936Y39148D02*
X108736Y40348D01*
X106337D01*
X105138Y39148D01*
Y34350D01*
X106337Y33150D01*
X108736D01*
X109936Y34350D01*
X113535Y33150D02*
X115934D01*
X117134Y34350D01*
Y36749D01*
X115934Y37949D01*
X113535D01*
X112335Y36749D01*
Y34350D01*
X113535Y33150D01*
X119533Y37949D02*
Y34350D01*
X120732Y33150D01*
X124331D01*
Y37949D01*
X126731Y33150D02*
Y37949D01*
X130329D01*
X131529Y36749D01*
Y33150D01*
X135128Y39148D02*
Y37949D01*
X133928D01*
X136328D01*
X135128D01*
Y34350D01*
X136328Y33150D01*
X59348Y39148D02*
X58149Y40348D01*
X55750D01*
X54550Y39148D01*
Y37949D01*
X55750Y36749D01*
X58149D01*
X59348Y35549D01*
Y34350D01*
X58149Y33150D01*
X55750D01*
X54550Y34350D01*
X61748Y37949D02*
Y34350D01*
X62947Y33150D01*
X66546D01*
Y31950D01*
X65346Y30751D01*
X64147D01*
X66546Y33150D02*
Y37949D01*
X68945Y33150D02*
Y37949D01*
X70145D01*
X71345Y36749D01*
Y33150D01*
Y36749D01*
X72544Y37949D01*
X73744Y36749D01*
Y33150D01*
X76143Y40348D02*
Y33150D01*
X79742D01*
X80941Y34350D01*
Y35549D01*
Y36749D01*
X79742Y37949D01*
X76143D01*
X84540Y33150D02*
X86940D01*
X88139Y34350D01*
Y36749D01*
X86940Y37949D01*
X84540D01*
X83341Y36749D01*
Y34350D01*
X84540Y33150D01*
X90538D02*
X92938D01*
X91738D01*
Y40348D01*
X90538D01*
M02*
