G04*
G04 #@! TF.GenerationSoftware,Altium Limited,Altium Designer,20.2.4 (192)*
G04*
G04 Layer_Physical_Order=2*
G04 Layer_Color=16711680*
%FSLAX25Y25*%
%MOIN*%
G70*
G04*
G04 #@! TF.SameCoordinates,11A53595-3FD0-489E-A7EA-862F9466251B*
G04*
G04*
G04 #@! TF.FilePolarity,Positive*
G04*
G01*
G75*
%ADD16C,0.00787*%
%ADD19C,0.01968*%
G36*
X31436Y13748D02*
Y8042D01*
X28327D01*
X28080Y7993D01*
X27732Y8226D01*
X27146Y8343D01*
X26560Y8226D01*
X26063Y7895D01*
X25732Y7398D01*
X25615Y6812D01*
X25732Y6226D01*
X26063Y5730D01*
X26560Y5398D01*
X27146Y5281D01*
X27499Y4992D01*
Y1200D01*
X26276Y956D01*
X809D01*
Y6000D01*
X1276Y6312D01*
X1673Y6907D01*
X1812Y7608D01*
X1673Y8309D01*
X1276Y8903D01*
X809Y9215D01*
Y14260D01*
X26317D01*
X31436Y13748D01*
D02*
G37*
%LPC*%
G36*
X15709Y12767D02*
X11811D01*
X11494Y12704D01*
X11225Y12524D01*
X11046Y12255D01*
X10983Y11938D01*
Y3277D01*
X11046Y2960D01*
X11225Y2691D01*
X11494Y2512D01*
X11811Y2449D01*
X15709D01*
X16026Y2512D01*
X16295Y2691D01*
X16474Y2960D01*
X16537Y3277D01*
Y11938D01*
X16474Y12255D01*
X16295Y12524D01*
X16026Y12704D01*
X15709Y12767D01*
D02*
G37*
%LPD*%
D16*
X21074Y9026D02*
Y9811D01*
X17837Y13047D02*
X21074Y9811D01*
Y9026D02*
X21300Y8800D01*
D19*
X20537Y5047D02*
D03*
X7937Y6247D02*
D03*
X4037Y9847D02*
D03*
X17837Y13047D02*
D03*
X21300Y8800D02*
D03*
M02*
