G04*
G04 #@! TF.GenerationSoftware,Altium Limited,Altium Designer,20.2.4 (192)*
G04*
G04 Layer_Color=65535*
%FSLAX25Y25*%
%MOIN*%
G70*
G04*
G04 #@! TF.SameCoordinates,11A53595-3FD0-489E-A7EA-862F9466251B*
G04*
G04*
G04 #@! TF.FilePolarity,Positive*
G04*
G01*
G75*
%ADD10C,0.00050*%
%ADD11C,0.00394*%
G36*
X27550Y8143D02*
Y8142D01*
Y8136D01*
Y8129D01*
Y8119D01*
X27549Y8106D01*
Y8091D01*
X27547Y8074D01*
X27546Y8056D01*
X27542Y8017D01*
X27536Y7976D01*
X27527Y7937D01*
X27521Y7919D01*
X27515Y7901D01*
Y7900D01*
X27514Y7897D01*
X27511Y7892D01*
X27508Y7887D01*
X27499Y7871D01*
X27486Y7850D01*
X27469Y7827D01*
X27449Y7804D01*
X27423Y7779D01*
X27391Y7758D01*
X27389D01*
X27386Y7755D01*
X27382Y7753D01*
X27375Y7749D01*
X27366Y7745D01*
X27354Y7740D01*
X27343Y7736D01*
X27328Y7730D01*
X27312Y7724D01*
X27295Y7720D01*
X27276Y7716D01*
X27254Y7711D01*
X27233Y7708D01*
X27209Y7705D01*
X27157Y7702D01*
X27144D01*
X27134Y7704D01*
X27122D01*
X27108Y7705D01*
X27092Y7707D01*
X27076Y7708D01*
X27040Y7714D01*
X27001Y7723D01*
X26963Y7734D01*
X26927Y7750D01*
X26925D01*
X26922Y7753D01*
X26918Y7756D01*
X26912Y7759D01*
X26896Y7771D01*
X26877Y7787D01*
X26856Y7807D01*
X26835Y7830D01*
X26815Y7859D01*
X26799Y7891D01*
Y7892D01*
X26798Y7895D01*
X26796Y7901D01*
X26793Y7908D01*
X26790Y7917D01*
X26787Y7929D01*
X26783Y7942D01*
X26780Y7958D01*
X26777Y7975D01*
X26773Y7994D01*
X26770Y8014D01*
X26767Y8036D01*
X26764Y8061D01*
X26763Y8087D01*
X26761Y8114D01*
Y8143D01*
Y8723D01*
X26895D01*
Y8143D01*
Y8142D01*
Y8138D01*
Y8130D01*
Y8122D01*
X26896Y8111D01*
Y8098D01*
X26898Y8071D01*
X26901Y8039D01*
X26905Y8007D01*
X26911Y7976D01*
X26914Y7964D01*
X26918Y7950D01*
X26919Y7948D01*
X26922Y7940D01*
X26930Y7930D01*
X26938Y7916D01*
X26948Y7901D01*
X26963Y7885D01*
X26980Y7869D01*
X27001Y7856D01*
X27004Y7855D01*
X27011Y7850D01*
X27024Y7846D01*
X27041Y7840D01*
X27062Y7833D01*
X27088Y7829D01*
X27115Y7824D01*
X27146Y7823D01*
X27160D01*
X27169Y7824D01*
X27182D01*
X27195Y7826D01*
X27227Y7831D01*
X27262Y7839D01*
X27295Y7850D01*
X27327Y7866D01*
X27341Y7876D01*
X27354Y7888D01*
X27356Y7890D01*
X27357Y7891D01*
X27360Y7895D01*
X27365Y7901D01*
X27369Y7910D01*
X27375Y7919D01*
X27380Y7932D01*
X27386Y7945D01*
X27392Y7961D01*
X27397Y7979D01*
X27402Y8001D01*
X27407Y8024D01*
X27411Y8050D01*
X27414Y8078D01*
X27417Y8110D01*
Y8143D01*
Y8723D01*
X27550D01*
Y8143D01*
D02*
G37*
G36*
X28206Y8722D02*
X28230Y8720D01*
X28256Y8719D01*
X28281Y8716D01*
X28303Y8713D01*
X28306D01*
X28316Y8710D01*
X28329Y8707D01*
X28346Y8703D01*
X28365Y8696D01*
X28385Y8687D01*
X28407Y8677D01*
X28426Y8665D01*
X28429Y8664D01*
X28435Y8659D01*
X28443Y8651D01*
X28455Y8641D01*
X28468Y8628D01*
X28481Y8610D01*
X28496Y8591D01*
X28507Y8570D01*
X28509Y8567D01*
X28512Y8559D01*
X28517Y8546D01*
X28523Y8529D01*
X28528Y8509D01*
X28533Y8485D01*
X28536Y8459D01*
X28538Y8432D01*
Y8430D01*
Y8426D01*
Y8420D01*
X28536Y8410D01*
X28535Y8400D01*
X28533Y8387D01*
X28530Y8372D01*
X28528Y8356D01*
X28517Y8323D01*
X28512Y8306D01*
X28503Y8287D01*
X28493Y8268D01*
X28482Y8251D01*
X28469Y8233D01*
X28455Y8216D01*
X28454Y8214D01*
X28451Y8211D01*
X28446Y8207D01*
X28439Y8203D01*
X28430Y8196D01*
X28419Y8188D01*
X28404Y8179D01*
X28388Y8172D01*
X28370Y8164D01*
X28348Y8155D01*
X28324Y8148D01*
X28297Y8142D01*
X28268Y8136D01*
X28236Y8132D01*
X28200Y8129D01*
X28162Y8127D01*
X27905D01*
Y7720D01*
X27772D01*
Y8723D01*
X28184D01*
X28206Y8722D01*
D02*
G37*
G36*
X27884Y14747D02*
X27097Y14222D01*
X27884D01*
Y14094D01*
X26881D01*
Y14231D01*
X27670Y14757D01*
X26881D01*
Y14885D01*
X27884D01*
Y14747D01*
D02*
G37*
G36*
Y13695D02*
Y13565D01*
X27120Y13355D01*
X27119D01*
X27116Y13353D01*
X27111Y13352D01*
X27104Y13350D01*
X27088Y13346D01*
X27069Y13342D01*
X27049Y13336D01*
X27030Y13330D01*
X27014Y13326D01*
X27007Y13324D01*
X27003Y13323D01*
X27004D01*
X27005Y13321D01*
X27014Y13320D01*
X27027Y13317D01*
X27043Y13313D01*
X27061Y13308D01*
X27081Y13303D01*
X27101Y13298D01*
X27120Y13292D01*
X27884Y13081D01*
Y12942D01*
X26881Y12679D01*
Y12817D01*
X27539Y12966D01*
X27540D01*
X27543Y12968D01*
X27549Y12969D01*
X27556Y12970D01*
X27567Y12972D01*
X27577Y12975D01*
X27590Y12978D01*
X27604Y12981D01*
X27635Y12988D01*
X27670Y12995D01*
X27707Y13002D01*
X27745Y13010D01*
X27744D01*
X27738Y13011D01*
X27731Y13014D01*
X27719Y13015D01*
X27707Y13018D01*
X27693Y13023D01*
X27661Y13030D01*
X27629Y13039D01*
X27613Y13041D01*
X27599Y13046D01*
X27586Y13049D01*
X27574Y13052D01*
X27565Y13055D01*
X27559Y13056D01*
X26881Y13246D01*
Y13407D01*
X27390Y13549D01*
X27391D01*
X27398Y13552D01*
X27409Y13555D01*
X27422Y13558D01*
X27439Y13562D01*
X27458Y13568D01*
X27480Y13574D01*
X27504Y13579D01*
X27532Y13587D01*
X27559Y13592D01*
X27619Y13605D01*
X27681Y13619D01*
X27745Y13629D01*
X27744D01*
X27741Y13630D01*
X27735D01*
X27728Y13633D01*
X27719Y13634D01*
X27709Y13637D01*
X27696Y13639D01*
X27681Y13643D01*
X27649Y13650D01*
X27612Y13659D01*
X27571Y13668D01*
X27526Y13679D01*
X26881Y13836D01*
Y13971D01*
X27884Y13695D01*
D02*
G37*
G36*
X27411Y12599D02*
X27424D01*
X27441Y12598D01*
X27458Y12595D01*
X27477Y12593D01*
X27519Y12586D01*
X27565Y12575D01*
X27612Y12559D01*
X27635Y12550D01*
X27658Y12538D01*
X27659D01*
X27664Y12536D01*
X27670Y12533D01*
X27678Y12527D01*
X27688Y12521D01*
X27699Y12514D01*
X27726Y12493D01*
X27755Y12469D01*
X27786Y12440D01*
X27815Y12405D01*
X27841Y12364D01*
Y12363D01*
X27844Y12360D01*
X27847Y12353D01*
X27851Y12344D01*
X27855Y12334D01*
X27860Y12322D01*
X27865Y12308D01*
X27871Y12292D01*
X27877Y12274D01*
X27883Y12256D01*
X27891Y12213D01*
X27899Y12169D01*
X27902Y12121D01*
Y12106D01*
X27900Y12098D01*
Y12084D01*
X27897Y12070D01*
X27896Y12054D01*
X27893Y12035D01*
X27884Y11996D01*
X27873Y11954D01*
X27855Y11910D01*
X27845Y11889D01*
X27833Y11867D01*
X27832Y11866D01*
X27830Y11863D01*
X27826Y11857D01*
X27820Y11848D01*
X27815Y11839D01*
X27806Y11829D01*
X27784Y11805D01*
X27758Y11777D01*
X27726Y11748D01*
X27690Y11722D01*
X27648Y11697D01*
X27646D01*
X27642Y11694D01*
X27636Y11692D01*
X27628Y11689D01*
X27616Y11684D01*
X27603Y11680D01*
X27588Y11674D01*
X27572Y11670D01*
X27554Y11664D01*
X27535Y11658D01*
X27491Y11649D01*
X27446Y11644D01*
X27397Y11641D01*
X27395D01*
X27394D01*
X27385D01*
X27372Y11642D01*
X27355D01*
X27335Y11645D01*
X27310Y11648D01*
X27282Y11652D01*
X27253Y11658D01*
X27223Y11664D01*
X27191Y11673D01*
X27159Y11684D01*
X27126Y11697D01*
X27094Y11712D01*
X27062Y11731D01*
X27033Y11751D01*
X27005Y11774D01*
X27004Y11776D01*
X27000Y11780D01*
X26992Y11789D01*
X26984Y11799D01*
X26972Y11812D01*
X26961Y11828D01*
X26948Y11847D01*
X26934Y11868D01*
X26921Y11892D01*
X26908Y11918D01*
X26897Y11947D01*
X26885Y11977D01*
X26876Y12011D01*
X26869Y12045D01*
X26865Y12082D01*
X26863Y12121D01*
Y12134D01*
X26865Y12144D01*
Y12157D01*
X26866Y12170D01*
X26869Y12187D01*
X26872Y12205D01*
X26879Y12242D01*
X26891Y12286D01*
X26908Y12328D01*
X26919Y12350D01*
X26930Y12372D01*
X26932Y12373D01*
X26933Y12376D01*
X26937Y12382D01*
X26942Y12390D01*
X26949Y12399D01*
X26958Y12411D01*
X26978Y12435D01*
X27004Y12461D01*
X27036Y12490D01*
X27074Y12518D01*
X27116Y12541D01*
X27117D01*
X27121Y12544D01*
X27127Y12547D01*
X27136Y12550D01*
X27148Y12556D01*
X27161Y12560D01*
X27177Y12566D01*
X27194Y12572D01*
X27213Y12576D01*
X27233Y12582D01*
X27256Y12588D01*
X27279Y12592D01*
X27330Y12598D01*
X27385Y12601D01*
X27387D01*
X27393D01*
X27400D01*
X27411Y12599D01*
D02*
G37*
G36*
X27407Y11497D02*
X27419D01*
X27446Y11496D01*
X27478Y11491D01*
X27512Y11487D01*
X27546Y11480D01*
X27581Y11471D01*
X27583D01*
X27586Y11470D01*
X27590Y11468D01*
X27596Y11467D01*
X27612Y11461D01*
X27632Y11452D01*
X27655Y11444D01*
X27678Y11432D01*
X27703Y11417D01*
X27726Y11403D01*
X27729Y11402D01*
X27736Y11396D01*
X27746Y11387D01*
X27760Y11375D01*
X27774Y11362D01*
X27788Y11347D01*
X27804Y11331D01*
X27817Y11312D01*
X27819Y11309D01*
X27823Y11303D01*
X27829Y11293D01*
X27836Y11278D01*
X27845Y11261D01*
X27852Y11241D01*
X27861Y11217D01*
X27868Y11191D01*
Y11188D01*
X27870Y11184D01*
X27871Y11180D01*
X27873Y11165D01*
X27876Y11145D01*
X27878Y11122D01*
X27881Y11094D01*
X27883Y11064D01*
X27884Y11030D01*
Y10669D01*
X26881D01*
Y11055D01*
X26882Y11081D01*
X26884Y11110D01*
X26887Y11139D01*
X26891Y11168D01*
X26895Y11193D01*
Y11194D01*
X26897Y11197D01*
Y11201D01*
X26900Y11207D01*
X26904Y11223D01*
X26911Y11243D01*
X26921Y11267D01*
X26934Y11291D01*
X26949Y11316D01*
X26968Y11339D01*
X26969Y11341D01*
X26971Y11342D01*
X26975Y11347D01*
X26979Y11352D01*
X26994Y11367D01*
X27014Y11384D01*
X27039Y11403D01*
X27068Y11423D01*
X27101Y11442D01*
X27139Y11458D01*
X27140D01*
X27143Y11460D01*
X27149Y11462D01*
X27158Y11464D01*
X27168Y11468D01*
X27180Y11471D01*
X27193Y11474D01*
X27209Y11478D01*
X27224Y11483D01*
X27243Y11486D01*
X27284Y11493D01*
X27329Y11497D01*
X27378Y11499D01*
X27380D01*
X27382D01*
X27390D01*
X27397D01*
X27407Y11497D01*
D02*
G37*
G36*
X17702Y7723D02*
X17700D01*
X17695D01*
X17686D01*
X17674Y7725D01*
X17661Y7726D01*
X17647Y7729D01*
X17632Y7732D01*
X17616Y7738D01*
X17615D01*
X17613Y7739D01*
X17605Y7742D01*
X17592Y7748D01*
X17574Y7757D01*
X17554Y7768D01*
X17531Y7783D01*
X17507Y7799D01*
X17483Y7819D01*
X17481D01*
X17480Y7822D01*
X17471Y7829D01*
X17458Y7842D01*
X17439Y7861D01*
X17417Y7883D01*
X17391Y7910D01*
X17362Y7944D01*
X17332Y7980D01*
X17331Y7981D01*
X17326Y7987D01*
X17319Y7996D01*
X17310Y8006D01*
X17299Y8019D01*
X17286Y8035D01*
X17271Y8051D01*
X17255Y8070D01*
X17220Y8106D01*
X17186Y8142D01*
X17168Y8160D01*
X17151Y8176D01*
X17135Y8190D01*
X17119Y8202D01*
X17117D01*
X17116Y8205D01*
X17111Y8208D01*
X17106Y8211D01*
X17090Y8221D01*
X17071Y8232D01*
X17048Y8242D01*
X17023Y8252D01*
X16996Y8258D01*
X16970Y8261D01*
X16968D01*
X16967D01*
X16958Y8260D01*
X16943Y8258D01*
X16927Y8254D01*
X16907Y8248D01*
X16887Y8238D01*
X16867Y8225D01*
X16846Y8208D01*
X16843Y8205D01*
X16838Y8197D01*
X16830Y8187D01*
X16820Y8171D01*
X16811Y8151D01*
X16803Y8128D01*
X16797Y8100D01*
X16795Y8070D01*
Y8061D01*
X16797Y8055D01*
X16798Y8038D01*
X16803Y8018D01*
X16808Y7996D01*
X16819Y7971D01*
X16832Y7948D01*
X16849Y7926D01*
X16852Y7923D01*
X16859Y7918D01*
X16871Y7909D01*
X16888Y7900D01*
X16908Y7890D01*
X16935Y7881D01*
X16964Y7875D01*
X16997Y7873D01*
X16984Y7746D01*
X16983D01*
X16978Y7748D01*
X16971D01*
X16961Y7749D01*
X16949Y7752D01*
X16936Y7755D01*
X16920Y7760D01*
X16904Y7764D01*
X16869Y7775D01*
X16835Y7793D01*
X16817Y7803D01*
X16800Y7816D01*
X16784Y7829D01*
X16769Y7844D01*
X16768Y7845D01*
X16767Y7848D01*
X16762Y7852D01*
X16758Y7860D01*
X16752Y7868D01*
X16746Y7878D01*
X16739Y7890D01*
X16732Y7904D01*
X16724Y7920D01*
X16717Y7938D01*
X16711Y7957D01*
X16705Y7977D01*
X16701Y7999D01*
X16697Y8022D01*
X16695Y8047D01*
X16694Y8073D01*
Y8087D01*
X16695Y8097D01*
X16697Y8109D01*
X16698Y8123D01*
X16701Y8139D01*
X16704Y8155D01*
X16714Y8193D01*
X16729Y8231D01*
X16737Y8250D01*
X16748Y8268D01*
X16761Y8286D01*
X16775Y8302D01*
X16777Y8303D01*
X16778Y8306D01*
X16784Y8309D01*
X16790Y8315D01*
X16797Y8322D01*
X16807Y8329D01*
X16817Y8337D01*
X16830Y8345D01*
X16858Y8360D01*
X16893Y8374D01*
X16910Y8380D01*
X16930Y8383D01*
X16951Y8386D01*
X16972Y8387D01*
X16975D01*
X16983D01*
X16994Y8386D01*
X17010Y8384D01*
X17027Y8382D01*
X17048Y8376D01*
X17070Y8370D01*
X17091Y8361D01*
X17094Y8360D01*
X17101Y8357D01*
X17113Y8351D01*
X17129Y8342D01*
X17146Y8331D01*
X17168Y8316D01*
X17190Y8299D01*
X17214Y8279D01*
X17217Y8276D01*
X17226Y8268D01*
X17233Y8261D01*
X17241Y8254D01*
X17249Y8245D01*
X17261Y8234D01*
X17273Y8222D01*
X17286Y8208D01*
X17300Y8193D01*
X17316Y8176D01*
X17332Y8157D01*
X17351Y8136D01*
X17370Y8113D01*
X17390Y8090D01*
X17391Y8089D01*
X17394Y8086D01*
X17399Y8080D01*
X17404Y8073D01*
X17413Y8064D01*
X17422Y8054D01*
X17441Y8031D01*
X17462Y8006D01*
X17484Y7983D01*
X17503Y7963D01*
X17510Y7954D01*
X17517Y7947D01*
X17519Y7945D01*
X17523Y7941D01*
X17529Y7935D01*
X17538Y7928D01*
X17548Y7920D01*
X17558Y7912D01*
X17583Y7894D01*
Y8389D01*
X17702D01*
Y7723D01*
D02*
G37*
G36*
X17449Y7606D02*
X17470Y7603D01*
X17493Y7597D01*
X17517Y7590D01*
X17544Y7578D01*
X17571Y7562D01*
X17573D01*
X17574Y7561D01*
X17583Y7554D01*
X17596Y7543D01*
X17610Y7529D01*
X17628Y7510D01*
X17647Y7487D01*
X17664Y7461D01*
X17680Y7430D01*
Y7429D01*
X17681Y7426D01*
X17683Y7422D01*
X17686Y7416D01*
X17689Y7407D01*
X17693Y7397D01*
X17699Y7374D01*
X17706Y7346D01*
X17713Y7313D01*
X17718Y7277D01*
X17719Y7237D01*
Y7214D01*
X17718Y7203D01*
Y7190D01*
X17716Y7175D01*
X17715Y7158D01*
X17709Y7121D01*
X17703Y7084D01*
X17693Y7046D01*
X17680Y7010D01*
Y7008D01*
X17679Y7006D01*
X17676Y7001D01*
X17673Y6995D01*
X17664Y6978D01*
X17651Y6958D01*
X17634Y6934D01*
X17613Y6910D01*
X17589Y6887D01*
X17561Y6865D01*
X17560D01*
X17557Y6862D01*
X17552Y6860D01*
X17547Y6856D01*
X17539Y6853D01*
X17531Y6849D01*
X17509Y6839D01*
X17481Y6829D01*
X17451Y6820D01*
X17416Y6814D01*
X17380Y6811D01*
X17368Y6936D01*
X17370D01*
X17371D01*
X17376Y6937D01*
X17381D01*
X17394Y6940D01*
X17413Y6945D01*
X17432Y6950D01*
X17454Y6956D01*
X17474Y6966D01*
X17493Y6977D01*
X17494Y6978D01*
X17500Y6982D01*
X17510Y6989D01*
X17520Y7001D01*
X17534Y7016D01*
X17547Y7032D01*
X17560Y7053D01*
X17571Y7077D01*
Y7078D01*
X17573Y7079D01*
X17574Y7084D01*
X17576Y7088D01*
X17580Y7103D01*
X17586Y7121D01*
X17592Y7145D01*
X17596Y7171D01*
X17599Y7200D01*
X17600Y7232D01*
Y7245D01*
X17599Y7259D01*
X17597Y7277D01*
X17594Y7297D01*
X17592Y7320D01*
X17586Y7343D01*
X17579Y7365D01*
X17577Y7368D01*
X17574Y7375D01*
X17568Y7385D01*
X17562Y7398D01*
X17552Y7412D01*
X17542Y7426D01*
X17531Y7440D01*
X17516Y7452D01*
X17515Y7453D01*
X17509Y7456D01*
X17502Y7461D01*
X17490Y7467D01*
X17478Y7472D01*
X17464Y7477D01*
X17448Y7480D01*
X17431Y7481D01*
X17429D01*
X17422D01*
X17413Y7480D01*
X17402Y7478D01*
X17390Y7474D01*
X17376Y7469D01*
X17361Y7462D01*
X17348Y7452D01*
X17346Y7451D01*
X17342Y7446D01*
X17336Y7440D01*
X17328Y7430D01*
X17319Y7419D01*
X17309Y7403D01*
X17299Y7384D01*
X17290Y7362D01*
X17289Y7361D01*
X17287Y7354D01*
X17283Y7342D01*
X17281Y7335D01*
X17278Y7324D01*
X17274Y7314D01*
X17271Y7301D01*
X17267Y7287D01*
X17262Y7269D01*
X17258Y7252D01*
X17252Y7232D01*
X17246Y7209D01*
X17241Y7184D01*
Y7182D01*
X17239Y7178D01*
X17238Y7171D01*
X17235Y7162D01*
X17232Y7151D01*
X17229Y7137D01*
X17220Y7108D01*
X17210Y7077D01*
X17200Y7043D01*
X17190Y7014D01*
X17184Y7001D01*
X17178Y6989D01*
Y6988D01*
X17177Y6987D01*
X17171Y6978D01*
X17164Y6965D01*
X17152Y6950D01*
X17139Y6933D01*
X17123Y6916D01*
X17104Y6898D01*
X17084Y6884D01*
X17081Y6882D01*
X17074Y6878D01*
X17062Y6872D01*
X17048Y6866D01*
X17029Y6860D01*
X17007Y6855D01*
X16984Y6850D01*
X16959Y6849D01*
X16958D01*
X16956D01*
X16952D01*
X16946D01*
X16932Y6852D01*
X16913Y6855D01*
X16891Y6859D01*
X16867Y6866D01*
X16842Y6876D01*
X16817Y6891D01*
X16816D01*
X16814Y6892D01*
X16806Y6900D01*
X16794Y6910D01*
X16780Y6923D01*
X16764Y6940D01*
X16746Y6962D01*
X16730Y6988D01*
X16716Y7017D01*
Y7019D01*
X16714Y7022D01*
X16713Y7026D01*
X16710Y7032D01*
X16707Y7039D01*
X16704Y7049D01*
X16698Y7071D01*
X16692Y7098D01*
X16687Y7130D01*
X16682Y7164D01*
X16681Y7201D01*
Y7220D01*
X16682Y7230D01*
Y7240D01*
X16685Y7268D01*
X16690Y7298D01*
X16697Y7330D01*
X16705Y7365D01*
X16717Y7397D01*
Y7398D01*
X16719Y7401D01*
X16722Y7406D01*
X16724Y7412D01*
X16732Y7426D01*
X16745Y7445D01*
X16759Y7467D01*
X16778Y7488D01*
X16800Y7509D01*
X16824Y7527D01*
X16826D01*
X16827Y7529D01*
X16832Y7532D01*
X16836Y7535D01*
X16851Y7542D01*
X16869Y7551D01*
X16893Y7561D01*
X16920Y7568D01*
X16949Y7575D01*
X16981Y7578D01*
X16991Y7451D01*
X16990D01*
X16987D01*
X16983Y7449D01*
X16975Y7448D01*
X16959Y7443D01*
X16938Y7438D01*
X16914Y7429D01*
X16891Y7416D01*
X16869Y7400D01*
X16849Y7380D01*
X16848Y7377D01*
X16842Y7369D01*
X16833Y7355D01*
X16824Y7336D01*
X16816Y7311D01*
X16807Y7282D01*
X16801Y7246D01*
X16800Y7206D01*
Y7185D01*
X16801Y7177D01*
X16803Y7165D01*
X16806Y7139D01*
X16811Y7110D01*
X16819Y7081D01*
X16830Y7053D01*
X16838Y7042D01*
X16845Y7030D01*
X16846Y7027D01*
X16852Y7022D01*
X16862Y7013D01*
X16874Y7004D01*
X16890Y6994D01*
X16907Y6985D01*
X16927Y6979D01*
X16951Y6977D01*
X16953D01*
X16959D01*
X16970Y6978D01*
X16981Y6981D01*
X16996Y6985D01*
X17010Y6992D01*
X17025Y7001D01*
X17039Y7014D01*
X17041Y7016D01*
X17045Y7023D01*
X17049Y7029D01*
X17052Y7034D01*
X17056Y7043D01*
X17062Y7053D01*
X17067Y7066D01*
X17072Y7081D01*
X17078Y7097D01*
X17086Y7116D01*
X17091Y7136D01*
X17098Y7159D01*
X17104Y7185D01*
X17111Y7214D01*
Y7216D01*
X17113Y7222D01*
X17114Y7230D01*
X17117Y7240D01*
X17120Y7253D01*
X17125Y7269D01*
X17129Y7285D01*
X17133Y7303D01*
X17143Y7340D01*
X17154Y7377D01*
X17159Y7394D01*
X17165Y7410D01*
X17170Y7425D01*
X17175Y7436D01*
Y7438D01*
X17177Y7440D01*
X17180Y7445D01*
X17183Y7451D01*
X17191Y7467D01*
X17203Y7485D01*
X17219Y7507D01*
X17236Y7529D01*
X17256Y7549D01*
X17278Y7567D01*
X17281Y7568D01*
X17289Y7574D01*
X17301Y7580D01*
X17319Y7588D01*
X17339Y7596D01*
X17364Y7603D01*
X17391Y7607D01*
X17420Y7609D01*
X17422D01*
X17423D01*
X17428D01*
X17433D01*
X17449Y7606D01*
D02*
G37*
G36*
X10602Y8174D02*
X9817D01*
X9819Y8172D01*
X9825Y8165D01*
X9833Y8156D01*
X9843Y8142D01*
X9856Y8126D01*
X9871Y8105D01*
X9887Y8082D01*
X9903Y8056D01*
Y8055D01*
X9904Y8053D01*
X9910Y8044D01*
X9917Y8030D01*
X9926Y8012D01*
X9936Y7992D01*
X9946Y7970D01*
X9956Y7949D01*
X9965Y7927D01*
X9846D01*
Y7928D01*
X9843Y7931D01*
X9842Y7937D01*
X9838Y7944D01*
X9833Y7953D01*
X9827Y7963D01*
X9813Y7988D01*
X9797Y8017D01*
X9777Y8046D01*
X9753Y8076D01*
X9729Y8107D01*
X9727Y8108D01*
X9726Y8110D01*
X9722Y8114D01*
X9717Y8120D01*
X9703Y8133D01*
X9685Y8150D01*
X9665Y8168D01*
X9642Y8186D01*
X9619Y8202D01*
X9594Y8217D01*
Y8297D01*
X10602D01*
Y8174D01*
D02*
G37*
G36*
X10349Y7698D02*
X10370Y7695D01*
X10393Y7689D01*
X10418Y7682D01*
X10444Y7670D01*
X10471Y7654D01*
X10473D01*
X10474Y7653D01*
X10483Y7646D01*
X10496Y7636D01*
X10510Y7621D01*
X10528Y7602D01*
X10547Y7579D01*
X10564Y7553D01*
X10580Y7522D01*
Y7521D01*
X10581Y7518D01*
X10583Y7514D01*
X10586Y7508D01*
X10589Y7499D01*
X10593Y7489D01*
X10599Y7466D01*
X10606Y7438D01*
X10613Y7405D01*
X10618Y7369D01*
X10619Y7330D01*
Y7306D01*
X10618Y7295D01*
Y7282D01*
X10616Y7267D01*
X10615Y7250D01*
X10609Y7214D01*
X10603Y7176D01*
X10593Y7138D01*
X10580Y7102D01*
Y7101D01*
X10578Y7098D01*
X10576Y7093D01*
X10573Y7087D01*
X10564Y7070D01*
X10551Y7050D01*
X10533Y7027D01*
X10513Y7002D01*
X10489Y6979D01*
X10461Y6957D01*
X10460D01*
X10457Y6954D01*
X10452Y6953D01*
X10447Y6948D01*
X10439Y6945D01*
X10431Y6941D01*
X10409Y6931D01*
X10381Y6921D01*
X10351Y6912D01*
X10316Y6906D01*
X10280Y6903D01*
X10268Y7028D01*
X10270D01*
X10271D01*
X10275Y7029D01*
X10281D01*
X10294Y7032D01*
X10313Y7037D01*
X10332Y7042D01*
X10354Y7048D01*
X10374Y7058D01*
X10393Y7069D01*
X10394Y7070D01*
X10400Y7074D01*
X10410Y7082D01*
X10420Y7093D01*
X10434Y7108D01*
X10447Y7124D01*
X10460Y7145D01*
X10471Y7169D01*
Y7170D01*
X10473Y7171D01*
X10474Y7176D01*
X10475Y7180D01*
X10480Y7195D01*
X10486Y7214D01*
X10492Y7237D01*
X10496Y7263D01*
X10499Y7292D01*
X10500Y7324D01*
Y7337D01*
X10499Y7351D01*
X10497Y7369D01*
X10494Y7389D01*
X10492Y7412D01*
X10486Y7435D01*
X10478Y7457D01*
X10477Y7460D01*
X10474Y7467D01*
X10468Y7478D01*
X10463Y7491D01*
X10452Y7504D01*
X10442Y7518D01*
X10431Y7533D01*
X10416Y7544D01*
X10415Y7546D01*
X10409Y7548D01*
X10402Y7553D01*
X10390Y7559D01*
X10378Y7564D01*
X10364Y7569D01*
X10348Y7572D01*
X10330Y7573D01*
X10329D01*
X10322D01*
X10313Y7572D01*
X10302Y7570D01*
X10290Y7566D01*
X10275Y7562D01*
X10261Y7554D01*
X10248Y7544D01*
X10246Y7543D01*
X10242Y7538D01*
X10236Y7533D01*
X10228Y7522D01*
X10219Y7511D01*
X10209Y7495D01*
X10199Y7476D01*
X10190Y7454D01*
X10188Y7453D01*
X10187Y7446D01*
X10183Y7434D01*
X10181Y7427D01*
X10178Y7417D01*
X10174Y7406D01*
X10171Y7393D01*
X10167Y7379D01*
X10162Y7361D01*
X10158Y7344D01*
X10152Y7324D01*
X10146Y7301D01*
X10141Y7276D01*
Y7275D01*
X10139Y7270D01*
X10138Y7263D01*
X10135Y7254D01*
X10132Y7243D01*
X10129Y7230D01*
X10120Y7201D01*
X10110Y7169D01*
X10100Y7135D01*
X10090Y7106D01*
X10084Y7093D01*
X10078Y7082D01*
Y7080D01*
X10077Y7079D01*
X10071Y7070D01*
X10064Y7057D01*
X10052Y7042D01*
X10039Y7025D01*
X10023Y7008D01*
X10004Y6990D01*
X9984Y6976D01*
X9981Y6974D01*
X9974Y6970D01*
X9962Y6964D01*
X9948Y6958D01*
X9929Y6953D01*
X9907Y6947D01*
X9884Y6942D01*
X9859Y6941D01*
X9858D01*
X9856D01*
X9852D01*
X9846D01*
X9832Y6944D01*
X9813Y6947D01*
X9791Y6951D01*
X9766Y6958D01*
X9742Y6968D01*
X9717Y6983D01*
X9716D01*
X9714Y6984D01*
X9706Y6992D01*
X9694Y7002D01*
X9680Y7015D01*
X9663Y7032D01*
X9646Y7054D01*
X9630Y7080D01*
X9616Y7109D01*
Y7111D01*
X9614Y7113D01*
X9613Y7118D01*
X9610Y7124D01*
X9607Y7131D01*
X9604Y7141D01*
X9598Y7163D01*
X9593Y7190D01*
X9587Y7222D01*
X9582Y7256D01*
X9581Y7293D01*
Y7312D01*
X9582Y7322D01*
Y7333D01*
X9585Y7360D01*
X9590Y7390D01*
X9597Y7422D01*
X9606Y7457D01*
X9617Y7489D01*
Y7491D01*
X9619Y7493D01*
X9622Y7498D01*
X9624Y7504D01*
X9632Y7518D01*
X9645Y7537D01*
X9659Y7559D01*
X9678Y7580D01*
X9700Y7601D01*
X9725Y7620D01*
X9726D01*
X9727Y7621D01*
X9732Y7624D01*
X9736Y7627D01*
X9751Y7634D01*
X9769Y7643D01*
X9793Y7653D01*
X9820Y7660D01*
X9849Y7667D01*
X9881Y7670D01*
X9891Y7543D01*
X9890D01*
X9887D01*
X9883Y7541D01*
X9875Y7540D01*
X9859Y7536D01*
X9838Y7530D01*
X9814Y7521D01*
X9791Y7508D01*
X9769Y7492D01*
X9749Y7472D01*
X9748Y7469D01*
X9742Y7462D01*
X9733Y7447D01*
X9725Y7428D01*
X9716Y7403D01*
X9707Y7374D01*
X9701Y7338D01*
X9700Y7298D01*
Y7277D01*
X9701Y7269D01*
X9703Y7257D01*
X9706Y7231D01*
X9711Y7202D01*
X9719Y7173D01*
X9730Y7145D01*
X9737Y7134D01*
X9745Y7122D01*
X9746Y7119D01*
X9752Y7113D01*
X9762Y7105D01*
X9774Y7096D01*
X9790Y7086D01*
X9807Y7077D01*
X9827Y7072D01*
X9851Y7069D01*
X9854D01*
X9859D01*
X9870Y7070D01*
X9881Y7073D01*
X9896Y7077D01*
X9910Y7085D01*
X9925Y7093D01*
X9939Y7106D01*
X9940Y7108D01*
X9945Y7115D01*
X9949Y7121D01*
X9952Y7127D01*
X9956Y7135D01*
X9962Y7145D01*
X9967Y7158D01*
X9972Y7173D01*
X9978Y7189D01*
X9985Y7208D01*
X9991Y7228D01*
X9999Y7251D01*
X10004Y7277D01*
X10012Y7306D01*
Y7308D01*
X10013Y7314D01*
X10014Y7322D01*
X10017Y7333D01*
X10020Y7345D01*
X10025Y7361D01*
X10029Y7377D01*
X10033Y7395D01*
X10043Y7433D01*
X10054Y7469D01*
X10059Y7486D01*
X10065Y7502D01*
X10069Y7517D01*
X10075Y7528D01*
Y7530D01*
X10077Y7533D01*
X10080Y7537D01*
X10083Y7543D01*
X10091Y7559D01*
X10103Y7577D01*
X10119Y7599D01*
X10136Y7621D01*
X10157Y7641D01*
X10178Y7659D01*
X10181Y7660D01*
X10188Y7666D01*
X10202Y7672D01*
X10219Y7681D01*
X10239Y7688D01*
X10264Y7695D01*
X10291Y7699D01*
X10320Y7701D01*
X10322D01*
X10323D01*
X10328D01*
X10334D01*
X10349Y7698D01*
D02*
G37*
G36*
X25546Y10218D02*
X25558D01*
X25585Y10215D01*
X25616Y10210D01*
X25647Y10203D01*
X25682Y10194D01*
X25716Y10183D01*
X25717D01*
X25720Y10181D01*
X25724Y10180D01*
X25730Y10177D01*
X25746Y10168D01*
X25766Y10158D01*
X25788Y10144D01*
X25811Y10126D01*
X25833Y10108D01*
X25853Y10084D01*
X25856Y10081D01*
X25862Y10073D01*
X25871Y10060D01*
X25882Y10041D01*
X25894Y10018D01*
X25907Y9989D01*
X25920Y9957D01*
X25930Y9920D01*
X25810Y9888D01*
Y9890D01*
X25808Y9891D01*
X25807Y9896D01*
X25806Y9902D01*
X25801Y9915D01*
X25795Y9932D01*
X25787Y9952D01*
X25776Y9971D01*
X25766Y9991D01*
X25753Y10009D01*
X25752Y10010D01*
X25747Y10016D01*
X25739Y10023D01*
X25729Y10034D01*
X25716Y10045D01*
X25698Y10057D01*
X25679Y10068D01*
X25657Y10078D01*
X25655Y10080D01*
X25647Y10083D01*
X25634Y10087D01*
X25617Y10093D01*
X25597Y10097D01*
X25573Y10102D01*
X25547Y10105D01*
X25520Y10106D01*
X25504D01*
X25497Y10105D01*
X25488D01*
X25466Y10103D01*
X25442Y10099D01*
X25414Y10094D01*
X25388Y10087D01*
X25362Y10077D01*
X25359Y10075D01*
X25350Y10073D01*
X25339Y10065D01*
X25324Y10058D01*
X25307Y10047D01*
X25288Y10035D01*
X25270Y10020D01*
X25254Y10005D01*
X25253Y10003D01*
X25247Y9997D01*
X25240Y9987D01*
X25231Y9975D01*
X25221Y9961D01*
X25211Y9944D01*
X25201Y9925D01*
X25191Y9904D01*
Y9903D01*
X25189Y9900D01*
X25188Y9896D01*
X25185Y9888D01*
X25182Y9880D01*
X25179Y9870D01*
X25175Y9858D01*
X25172Y9845D01*
X25164Y9815D01*
X25159Y9780D01*
X25154Y9743D01*
X25153Y9703D01*
Y9701D01*
Y9697D01*
Y9690D01*
X25154Y9681D01*
Y9669D01*
X25156Y9655D01*
X25157Y9641D01*
X25159Y9625D01*
X25164Y9588D01*
X25172Y9551D01*
X25183Y9513D01*
X25198Y9477D01*
Y9475D01*
X25201Y9472D01*
X25202Y9468D01*
X25207Y9462D01*
X25217Y9446D01*
X25233Y9426D01*
X25252Y9404D01*
X25275Y9382D01*
X25302Y9362D01*
X25333Y9343D01*
X25334D01*
X25337Y9342D01*
X25341Y9339D01*
X25349Y9336D01*
X25356Y9333D01*
X25366Y9330D01*
X25389Y9322D01*
X25418Y9314D01*
X25450Y9307D01*
X25485Y9301D01*
X25521Y9300D01*
X25536D01*
X25545Y9301D01*
X25553D01*
X25575Y9304D01*
X25601Y9307D01*
X25629Y9313D01*
X25659Y9322D01*
X25689Y9332D01*
X25691D01*
X25694Y9333D01*
X25697Y9335D01*
X25703Y9337D01*
X25719Y9345D01*
X25736Y9353D01*
X25756Y9364D01*
X25778Y9375D01*
X25798Y9388D01*
X25816Y9403D01*
Y9591D01*
X25520D01*
Y9710D01*
X25946D01*
Y9337D01*
X25945Y9336D01*
X25942Y9335D01*
X25936Y9330D01*
X25929Y9324D01*
X25920Y9319D01*
X25910Y9311D01*
X25897Y9303D01*
X25884Y9294D01*
X25853Y9275D01*
X25818Y9255D01*
X25782Y9236D01*
X25743Y9220D01*
X25742D01*
X25739Y9219D01*
X25733Y9217D01*
X25726Y9214D01*
X25716Y9211D01*
X25704Y9207D01*
X25691Y9204D01*
X25678Y9201D01*
X25646Y9194D01*
X25610Y9187D01*
X25571Y9182D01*
X25530Y9181D01*
X25515D01*
X25505Y9182D01*
X25492D01*
X25476Y9184D01*
X25459Y9187D01*
X25440Y9188D01*
X25398Y9197D01*
X25353Y9207D01*
X25307Y9223D01*
X25283Y9232D01*
X25260Y9243D01*
X25259Y9245D01*
X25254Y9246D01*
X25249Y9251D01*
X25240Y9255D01*
X25230Y9262D01*
X25220Y9269D01*
X25192Y9290D01*
X25163Y9316D01*
X25133Y9348D01*
X25104Y9384D01*
X25078Y9426D01*
Y9427D01*
X25075Y9432D01*
X25072Y9438D01*
X25067Y9448D01*
X25063Y9458D01*
X25059Y9472D01*
X25053Y9487D01*
X25047Y9504D01*
X25041Y9523D01*
X25036Y9545D01*
X25031Y9567D01*
X25027Y9590D01*
X25020Y9641D01*
X25017Y9694D01*
Y9696D01*
Y9701D01*
Y9709D01*
X25018Y9719D01*
Y9732D01*
X25020Y9748D01*
X25023Y9764D01*
X25024Y9783D01*
X25028Y9803D01*
X25031Y9825D01*
X25043Y9871D01*
X25057Y9919D01*
X25078Y9967D01*
X25079Y9968D01*
X25080Y9973D01*
X25083Y9978D01*
X25089Y9987D01*
X25095Y9999D01*
X25102Y10010D01*
X25122Y10038D01*
X25147Y10070D01*
X25178Y10100D01*
X25212Y10131D01*
X25233Y10144D01*
X25253Y10157D01*
X25254Y10158D01*
X25259Y10160D01*
X25265Y10163D01*
X25273Y10167D01*
X25285Y10171D01*
X25298Y10177D01*
X25313Y10183D01*
X25330Y10189D01*
X25349Y10194D01*
X25369Y10199D01*
X25391Y10205D01*
X25414Y10209D01*
X25465Y10216D01*
X25491Y10219D01*
X25537D01*
X25546Y10218D01*
D02*
G37*
G36*
X26931Y9198D02*
X26793D01*
X26268Y9986D01*
Y9198D01*
X26140D01*
Y10202D01*
X26277D01*
X26803Y9413D01*
Y10202D01*
X26931D01*
Y9198D01*
D02*
G37*
G36*
X27566Y10200D02*
X27595Y10199D01*
X27624Y10196D01*
X27653Y10192D01*
X27677Y10187D01*
X27679D01*
X27682Y10186D01*
X27686D01*
X27692Y10183D01*
X27708Y10178D01*
X27728Y10171D01*
X27751Y10161D01*
X27776Y10148D01*
X27801Y10133D01*
X27824Y10115D01*
X27825Y10113D01*
X27827Y10112D01*
X27831Y10108D01*
X27837Y10103D01*
X27851Y10089D01*
X27869Y10068D01*
X27888Y10044D01*
X27908Y10015D01*
X27927Y9981D01*
X27943Y9944D01*
Y9942D01*
X27944Y9939D01*
X27947Y9933D01*
X27949Y9925D01*
X27953Y9915D01*
X27956Y9903D01*
X27959Y9890D01*
X27963Y9874D01*
X27967Y9858D01*
X27970Y9839D01*
X27978Y9799D01*
X27982Y9754D01*
X27983Y9704D01*
Y9703D01*
Y9700D01*
Y9693D01*
Y9685D01*
X27982Y9675D01*
Y9664D01*
X27981Y9636D01*
X27976Y9604D01*
X27972Y9571D01*
X27964Y9536D01*
X27956Y9501D01*
Y9500D01*
X27954Y9497D01*
X27953Y9493D01*
X27951Y9487D01*
X27946Y9471D01*
X27937Y9451D01*
X27928Y9427D01*
X27917Y9404D01*
X27902Y9380D01*
X27888Y9356D01*
X27886Y9353D01*
X27880Y9346D01*
X27872Y9336D01*
X27860Y9323D01*
X27847Y9308D01*
X27831Y9294D01*
X27815Y9278D01*
X27796Y9265D01*
X27793Y9263D01*
X27788Y9259D01*
X27777Y9253D01*
X27763Y9246D01*
X27746Y9237D01*
X27725Y9230D01*
X27702Y9222D01*
X27676Y9214D01*
X27673D01*
X27669Y9213D01*
X27664Y9211D01*
X27650Y9210D01*
X27630Y9207D01*
X27606Y9204D01*
X27579Y9201D01*
X27548Y9200D01*
X27515Y9198D01*
X27154D01*
Y10202D01*
X27540D01*
X27566Y10200D01*
D02*
G37*
%LPC*%
G36*
X28192Y8604D02*
X27905D01*
Y8246D01*
X28175D01*
X28185Y8248D01*
X28195D01*
X28207Y8249D01*
X28235Y8252D01*
X28265Y8258D01*
X28295Y8266D01*
X28323Y8278D01*
X28336Y8285D01*
X28346Y8294D01*
X28349Y8297D01*
X28355Y8303D01*
X28364Y8314D01*
X28374Y8329D01*
X28384Y8348D01*
X28393Y8371D01*
X28398Y8397D01*
X28401Y8427D01*
Y8429D01*
Y8430D01*
Y8438D01*
X28400Y8451D01*
X28397Y8465D01*
X28394Y8481D01*
X28388Y8500D01*
X28380Y8517D01*
X28370Y8535D01*
X28368Y8536D01*
X28364Y8542D01*
X28356Y8549D01*
X28348Y8559D01*
X28335Y8570D01*
X28320Y8578D01*
X28304Y8587D01*
X28285Y8594D01*
X28284D01*
X28278Y8596D01*
X28269Y8597D01*
X28258Y8600D01*
X28240Y8602D01*
X28219Y8603D01*
X28192Y8604D01*
D02*
G37*
G36*
X27384Y12464D02*
X27382D01*
X27378D01*
X27372D01*
X27364D01*
X27354Y12463D01*
X27340D01*
X27327Y12461D01*
X27311Y12459D01*
X27278Y12454D01*
X27243Y12447D01*
X27206Y12437D01*
X27171Y12422D01*
X27169D01*
X27166Y12421D01*
X27162Y12418D01*
X27156Y12415D01*
X27139Y12405D01*
X27119Y12392D01*
X27095Y12375D01*
X27072Y12353D01*
X27049Y12328D01*
X27029Y12301D01*
Y12299D01*
X27026Y12298D01*
X27024Y12293D01*
X27020Y12286D01*
X27017Y12279D01*
X27013Y12270D01*
X27003Y12248D01*
X26994Y12222D01*
X26985Y12192D01*
X26979Y12157D01*
X26978Y12121D01*
Y12108D01*
X26979Y12098D01*
X26981Y12084D01*
X26984Y12071D01*
X26987Y12055D01*
X26989Y12038D01*
X27001Y12000D01*
X27010Y11980D01*
X27018Y11960D01*
X27030Y11938D01*
X27043Y11918D01*
X27058Y11897D01*
X27075Y11879D01*
X27077Y11877D01*
X27079Y11874D01*
X27085Y11870D01*
X27094Y11863D01*
X27104Y11855D01*
X27117Y11847D01*
X27133Y11838D01*
X27152Y11828D01*
X27172Y11819D01*
X27197Y11809D01*
X27223Y11800D01*
X27252Y11793D01*
X27284Y11786D01*
X27320Y11781D01*
X27358Y11778D01*
X27398Y11777D01*
X27400D01*
X27406D01*
X27416D01*
X27429Y11778D01*
X27443Y11780D01*
X27461Y11783D01*
X27481Y11786D01*
X27501Y11789D01*
X27548Y11800D01*
X27571Y11809D01*
X27596Y11818D01*
X27619Y11829D01*
X27642Y11842D01*
X27664Y11857D01*
X27684Y11874D01*
X27685Y11876D01*
X27688Y11879D01*
X27694Y11884D01*
X27700Y11892D01*
X27709Y11902D01*
X27717Y11913D01*
X27726Y11926D01*
X27736Y11941D01*
X27746Y11958D01*
X27755Y11977D01*
X27764Y11998D01*
X27773Y12019D01*
X27778Y12042D01*
X27784Y12066D01*
X27787Y12092D01*
X27788Y12119D01*
Y12127D01*
X27787Y12134D01*
Y12144D01*
X27786Y12157D01*
X27783Y12172D01*
X27780Y12189D01*
X27775Y12206D01*
X27770Y12227D01*
X27762Y12245D01*
X27755Y12267D01*
X27745Y12287D01*
X27732Y12308D01*
X27719Y12328D01*
X27703Y12348D01*
X27684Y12367D01*
X27683Y12369D01*
X27680Y12372D01*
X27672Y12376D01*
X27664Y12383D01*
X27654Y12390D01*
X27641Y12398D01*
X27625Y12406D01*
X27607Y12416D01*
X27587Y12425D01*
X27564Y12434D01*
X27539Y12441D01*
X27513Y12450D01*
X27484Y12456D01*
X27452Y12460D01*
X27419Y12463D01*
X27384Y12464D01*
D02*
G37*
G36*
X27375Y11362D02*
X27374D01*
X27368D01*
X27361D01*
X27349Y11361D01*
X27336D01*
X27322Y11360D01*
X27304Y11358D01*
X27287Y11357D01*
X27248Y11349D01*
X27207Y11341D01*
X27169Y11328D01*
X27150Y11319D01*
X27134Y11310D01*
X27133D01*
X27130Y11307D01*
X27126Y11304D01*
X27120Y11302D01*
X27106Y11290D01*
X27088Y11275D01*
X27069Y11257D01*
X27050Y11235D01*
X27035Y11210D01*
X27021Y11184D01*
X27020Y11181D01*
X27018Y11174D01*
X27014Y11161D01*
X27010Y11142D01*
X27007Y11119D01*
X27003Y11090D01*
X27001Y11072D01*
Y11054D01*
X27000Y11035D01*
Y10803D01*
X27765D01*
Y11040D01*
X27764Y11051D01*
X27762Y11072D01*
X27761Y11097D01*
X27758Y11123D01*
X27754Y11149D01*
X27748Y11171D01*
X27746Y11174D01*
X27745Y11181D01*
X27741Y11191D01*
X27735Y11204D01*
X27726Y11219D01*
X27717Y11233D01*
X27707Y11248D01*
X27696Y11262D01*
X27693Y11264D01*
X27687Y11270D01*
X27677Y11278D01*
X27662Y11288D01*
X27643Y11300D01*
X27622Y11313D01*
X27597Y11325D01*
X27569Y11335D01*
X27568D01*
X27565Y11336D01*
X27561Y11338D01*
X27555Y11339D01*
X27548Y11341D01*
X27538Y11344D01*
X27527Y11347D01*
X27516Y11349D01*
X27487Y11354D01*
X27454Y11358D01*
X27416Y11361D01*
X27375Y11362D01*
D02*
G37*
G36*
X27519Y10083D02*
X27287D01*
Y9317D01*
X27525D01*
X27535Y9319D01*
X27557Y9320D01*
X27582Y9322D01*
X27608Y9324D01*
X27634Y9329D01*
X27656Y9335D01*
X27659Y9336D01*
X27666Y9337D01*
X27676Y9342D01*
X27689Y9348D01*
X27703Y9356D01*
X27718Y9365D01*
X27733Y9375D01*
X27747Y9387D01*
X27749Y9390D01*
X27754Y9396D01*
X27763Y9406D01*
X27773Y9420D01*
X27785Y9439D01*
X27798Y9461D01*
X27809Y9485D01*
X27819Y9513D01*
Y9514D01*
X27821Y9517D01*
X27822Y9522D01*
X27824Y9527D01*
X27825Y9535D01*
X27828Y9545D01*
X27831Y9555D01*
X27834Y9567D01*
X27838Y9596D01*
X27843Y9629D01*
X27846Y9667D01*
X27847Y9707D01*
Y9709D01*
Y9714D01*
Y9722D01*
X27846Y9733D01*
Y9746D01*
X27844Y9761D01*
X27843Y9778D01*
X27841Y9796D01*
X27834Y9835D01*
X27825Y9875D01*
X27812Y9913D01*
X27804Y9932D01*
X27795Y9948D01*
Y9949D01*
X27792Y9952D01*
X27789Y9957D01*
X27786Y9962D01*
X27775Y9977D01*
X27760Y9994D01*
X27741Y10013D01*
X27720Y10032D01*
X27695Y10048D01*
X27669Y10061D01*
X27666Y10063D01*
X27659Y10064D01*
X27645Y10068D01*
X27627Y10073D01*
X27603Y10075D01*
X27575Y10080D01*
X27557Y10081D01*
X27538D01*
X27519Y10083D01*
D02*
G37*
%LPD*%
D10*
X23996Y7608D02*
G03*
X23996Y7608I-1575J0D01*
G01*
X6673D02*
G03*
X6673Y7608I-1575J0D01*
G01*
X29508Y8001D02*
X31083D01*
X29508Y14104D02*
X31083D01*
X29508Y10363D02*
X31083D01*
X29508Y12726D02*
Y14104D01*
Y10363D02*
Y11742D01*
Y8001D02*
Y9379D01*
Y12726D02*
X31083D01*
X29508Y9379D02*
X31083D01*
Y8001D02*
Y9379D01*
Y10363D02*
Y11742D01*
Y12726D02*
Y14104D01*
X29508Y11742D02*
X31083D01*
X19862Y718D02*
X24980D01*
X26358Y1702D02*
Y13513D01*
X24980D02*
Y14497D01*
Y718D02*
Y1702D01*
Y13513D02*
X26358D01*
X24980Y1702D02*
X26358D01*
X19862Y14497D02*
X24980D01*
X19862Y13513D02*
Y14497D01*
Y718D02*
Y1702D01*
X18484Y13513D02*
X19862D01*
X18484Y1702D02*
X19862D01*
X18484D02*
Y13513D01*
X2540Y718D02*
X7658D01*
X9036Y1702D02*
Y13513D01*
X7658D02*
X9036D01*
X7658Y1702D02*
X9036D01*
X7658Y13513D02*
Y14497D01*
Y718D02*
Y1702D01*
X2540Y14497D02*
X7658D01*
X2540Y718D02*
Y1702D01*
Y13513D02*
Y14497D01*
X1161Y13513D02*
X2540D01*
X1161Y1702D02*
X2540D01*
X1161D02*
Y13513D01*
D11*
X18615Y13900D02*
X26453D01*
X18615Y1326D02*
Y13900D01*
Y1326D02*
X26453D01*
Y13900D01*
X1082D02*
X8921D01*
X1082Y1326D02*
Y13900D01*
Y1326D02*
X8921D01*
Y13900D01*
M02*
