G04*
G04 #@! TF.GenerationSoftware,Altium Limited,Altium Designer,20.2.4 (192)*
G04*
G04 Layer_Color=32896*
%FSLAX25Y25*%
%MOIN*%
G70*
G04*
G04 #@! TF.SameCoordinates,11A53595-3FD0-489E-A7EA-862F9466251B*
G04*
G04*
G04 #@! TF.FilePolarity,Positive*
G04*
G01*
G75*
G36*
X4661Y12903D02*
X4392D01*
Y14356D01*
X4231Y14221D01*
X2660Y12939D01*
X2391D01*
Y14569D01*
X2660D01*
Y13299D01*
X2706Y13342D01*
X2752Y13385D01*
X2798Y13424D01*
X2840Y13460D01*
X2876Y13490D01*
X2906Y13513D01*
X2926Y13529D01*
X2929Y13536D01*
X2932D01*
X4382Y14700D01*
X4661D01*
Y12903D01*
D02*
G37*
G36*
X2660Y12001D02*
X4661D01*
Y11699D01*
X2660D01*
Y10951D01*
X2391D01*
Y12748D01*
X2660D01*
Y12001D01*
D02*
G37*
G36*
X3657Y10751D02*
X3765Y10744D01*
X3864Y10734D01*
X3955Y10718D01*
X4041Y10702D01*
X4116Y10682D01*
X4185Y10662D01*
X4244Y10643D01*
X4297Y10623D01*
X4343Y10600D01*
X4382Y10584D01*
X4411Y10567D01*
X4438Y10551D01*
X4454Y10541D01*
X4464Y10534D01*
X4467Y10531D01*
X4507Y10495D01*
X4543Y10456D01*
X4575Y10413D01*
X4602Y10370D01*
X4625Y10328D01*
X4644Y10285D01*
X4657Y10243D01*
X4671Y10203D01*
X4680Y10164D01*
X4687Y10128D01*
X4693Y10095D01*
X4697Y10069D01*
X4700Y10046D01*
Y10013D01*
X4693Y9924D01*
X4680Y9842D01*
X4657Y9773D01*
X4634Y9714D01*
X4611Y9665D01*
X4598Y9649D01*
X4589Y9632D01*
X4582Y9619D01*
X4575Y9609D01*
X4569Y9606D01*
Y9603D01*
X4513Y9544D01*
X4454Y9495D01*
X4388Y9452D01*
X4329Y9419D01*
X4274Y9393D01*
X4251Y9380D01*
X4228Y9373D01*
X4211Y9367D01*
X4198Y9360D01*
X4192Y9357D01*
X4188D01*
X4139Y9341D01*
X4090Y9327D01*
X3985Y9308D01*
X3877Y9291D01*
X3772Y9281D01*
X3726Y9278D01*
X3683Y9275D01*
X3644D01*
X3608Y9272D01*
X3582D01*
X3559D01*
X3545D01*
X3542D01*
X3480D01*
X3421Y9275D01*
X3368D01*
X3316Y9278D01*
X3270Y9285D01*
X3224Y9288D01*
X3185Y9291D01*
X3149Y9298D01*
X3116Y9301D01*
X3086Y9308D01*
X3063Y9311D01*
X3044Y9314D01*
X3027Y9318D01*
X3017Y9321D01*
X3011Y9324D01*
X3008D01*
X2935Y9344D01*
X2870Y9367D01*
X2814Y9393D01*
X2765Y9413D01*
X2722Y9436D01*
X2693Y9449D01*
X2676Y9462D01*
X2670Y9465D01*
X2620Y9501D01*
X2578Y9537D01*
X2542Y9577D01*
X2509Y9613D01*
X2486Y9646D01*
X2470Y9672D01*
X2460Y9688D01*
X2457Y9691D01*
Y9695D01*
X2430Y9747D01*
X2414Y9803D01*
X2401Y9855D01*
X2391Y9905D01*
X2384Y9947D01*
X2381Y9983D01*
Y10013D01*
X2388Y10101D01*
X2401Y10183D01*
X2424Y10252D01*
X2447Y10311D01*
X2473Y10361D01*
X2483Y10380D01*
X2496Y10397D01*
X2502Y10410D01*
X2509Y10420D01*
X2516Y10423D01*
Y10426D01*
X2568Y10485D01*
X2630Y10534D01*
X2693Y10577D01*
X2752Y10610D01*
X2807Y10636D01*
X2830Y10649D01*
X2853Y10656D01*
X2870Y10662D01*
X2883Y10669D01*
X2889Y10672D01*
X2893D01*
X2942Y10685D01*
X2991Y10698D01*
X3099Y10718D01*
X3208Y10734D01*
X3309Y10744D01*
X3359Y10748D01*
X3401Y10751D01*
X3441D01*
X3477Y10754D01*
X3503D01*
X3526D01*
X3539D01*
X3542D01*
X3657Y10751D01*
D02*
G37*
G36*
X4661Y7523D02*
X4392D01*
Y8642D01*
X4336Y8602D01*
X4313Y8583D01*
X4290Y8566D01*
X4270Y8550D01*
X4257Y8537D01*
X4247Y8527D01*
X4244Y8524D01*
X4228Y8507D01*
X4211Y8488D01*
X4169Y8442D01*
X4119Y8389D01*
X4070Y8333D01*
X4028Y8281D01*
X4008Y8258D01*
X3988Y8238D01*
X3975Y8222D01*
X3965Y8209D01*
X3959Y8202D01*
X3955Y8199D01*
X3909Y8147D01*
X3867Y8094D01*
X3824Y8048D01*
X3788Y8005D01*
X3752Y7966D01*
X3719Y7933D01*
X3690Y7901D01*
X3664Y7874D01*
X3637Y7848D01*
X3618Y7828D01*
X3601Y7812D01*
X3585Y7796D01*
X3565Y7779D01*
X3559Y7773D01*
X3503Y7727D01*
X3454Y7687D01*
X3404Y7655D01*
X3365Y7628D01*
X3329Y7609D01*
X3303Y7596D01*
X3286Y7589D01*
X3280Y7586D01*
X3231Y7566D01*
X3181Y7553D01*
X3135Y7540D01*
X3096Y7533D01*
X3060Y7530D01*
X3034Y7527D01*
X3017D01*
X3011D01*
X2962Y7530D01*
X2916Y7536D01*
X2870Y7543D01*
X2830Y7556D01*
X2752Y7589D01*
X2689Y7622D01*
X2660Y7641D01*
X2637Y7658D01*
X2614Y7674D01*
X2598Y7691D01*
X2584Y7704D01*
X2571Y7710D01*
X2568Y7717D01*
X2565Y7720D01*
X2532Y7756D01*
X2502Y7796D01*
X2479Y7838D01*
X2460Y7881D01*
X2427Y7966D01*
X2404Y8051D01*
X2397Y8088D01*
X2391Y8124D01*
X2388Y8156D01*
X2384Y8183D01*
X2381Y8206D01*
Y8238D01*
X2384Y8297D01*
X2388Y8353D01*
X2397Y8406D01*
X2407Y8455D01*
X2420Y8501D01*
X2434Y8543D01*
X2450Y8583D01*
X2466Y8619D01*
X2483Y8652D01*
X2499Y8678D01*
X2512Y8701D01*
X2525Y8721D01*
X2535Y8737D01*
X2545Y8747D01*
X2548Y8753D01*
X2552Y8757D01*
X2584Y8789D01*
X2620Y8819D01*
X2660Y8849D01*
X2699Y8871D01*
X2778Y8911D01*
X2857Y8937D01*
X2893Y8947D01*
X2929Y8957D01*
X2958Y8963D01*
X2985Y8970D01*
X3008Y8973D01*
X3024D01*
X3034Y8976D01*
X3037D01*
X3067Y8691D01*
X2991Y8685D01*
X2926Y8671D01*
X2867Y8652D01*
X2821Y8629D01*
X2781Y8609D01*
X2755Y8589D01*
X2739Y8576D01*
X2732Y8570D01*
X2693Y8521D01*
X2663Y8468D01*
X2640Y8412D01*
X2627Y8363D01*
X2617Y8317D01*
X2614Y8278D01*
X2611Y8265D01*
Y8245D01*
X2614Y8176D01*
X2627Y8114D01*
X2647Y8061D01*
X2666Y8015D01*
X2689Y7979D01*
X2706Y7956D01*
X2719Y7940D01*
X2725Y7933D01*
X2771Y7894D01*
X2817Y7864D01*
X2863Y7841D01*
X2909Y7828D01*
X2945Y7819D01*
X2978Y7815D01*
X2998Y7812D01*
X3001D01*
X3004D01*
X3063Y7819D01*
X3126Y7832D01*
X3181Y7855D01*
X3234Y7878D01*
X3277Y7904D01*
X3313Y7927D01*
X3326Y7933D01*
X3336Y7940D01*
X3339Y7947D01*
X3342D01*
X3378Y7973D01*
X3414Y8005D01*
X3454Y8042D01*
X3493Y8081D01*
X3572Y8163D01*
X3650Y8245D01*
X3686Y8288D01*
X3719Y8324D01*
X3749Y8360D01*
X3775Y8389D01*
X3795Y8412D01*
X3811Y8432D01*
X3821Y8445D01*
X3824Y8448D01*
X3893Y8530D01*
X3959Y8606D01*
X4018Y8668D01*
X4067Y8717D01*
X4110Y8760D01*
X4139Y8789D01*
X4159Y8806D01*
X4162Y8812D01*
X4165D01*
X4221Y8858D01*
X4274Y8894D01*
X4326Y8927D01*
X4372Y8953D01*
X4411Y8973D01*
X4441Y8986D01*
X4461Y8993D01*
X4464Y8996D01*
X4467D01*
X4503Y9009D01*
X4536Y9016D01*
X4569Y9022D01*
X4598Y9026D01*
X4625Y9029D01*
X4644D01*
X4657D01*
X4661D01*
Y7523D01*
D02*
G37*
G36*
X3978Y6395D02*
X3700D01*
Y7258D01*
X3978D01*
Y6395D01*
D02*
G37*
G36*
X4661Y5765D02*
X3873D01*
X3516Y5395D01*
X4661Y4588D01*
Y4191D01*
X3313Y5185D01*
X2391Y4233D01*
Y4643D01*
X3519Y5765D01*
X2391D01*
Y6067D01*
X4661D01*
Y5765D01*
D02*
G37*
G36*
Y2239D02*
X4392D01*
Y3633D01*
X3621D01*
Y2377D01*
X3352D01*
Y3633D01*
X2660D01*
Y2292D01*
X2391D01*
Y3935D01*
X4661D01*
Y2239D01*
D02*
G37*
G36*
X3700Y1186D02*
X4661D01*
Y885D01*
X3700D01*
X2391Y-21D01*
Y330D01*
X3060Y767D01*
X3142Y819D01*
X3217Y868D01*
X3286Y911D01*
X3345Y947D01*
X3395Y977D01*
X3414Y990D01*
X3431Y999D01*
X3444Y1009D01*
X3454Y1016D01*
X3460Y1019D01*
X3463D01*
X3391Y1058D01*
X3322Y1101D01*
X3257Y1141D01*
X3198Y1177D01*
X3149Y1206D01*
X3129Y1219D01*
X3112Y1232D01*
X3099Y1239D01*
X3090Y1245D01*
X3083Y1252D01*
X3080D01*
X2391Y1698D01*
Y2062D01*
X3700Y1186D01*
D02*
G37*
G36*
X8461Y12595D02*
X8192D01*
Y13713D01*
X8136Y13674D01*
X8113Y13654D01*
X8090Y13637D01*
X8070Y13621D01*
X8057Y13608D01*
X8047Y13598D01*
X8044Y13595D01*
X8028Y13578D01*
X8011Y13559D01*
X7969Y13513D01*
X7919Y13460D01*
X7870Y13405D01*
X7828Y13352D01*
X7808Y13329D01*
X7788Y13309D01*
X7775Y13293D01*
X7765Y13280D01*
X7759Y13273D01*
X7755Y13270D01*
X7710Y13218D01*
X7667Y13165D01*
X7624Y13119D01*
X7588Y13077D01*
X7552Y13037D01*
X7519Y13004D01*
X7490Y12972D01*
X7463Y12945D01*
X7437Y12919D01*
X7418Y12900D01*
X7401Y12883D01*
X7385Y12867D01*
X7365Y12850D01*
X7359Y12844D01*
X7303Y12798D01*
X7254Y12758D01*
X7204Y12726D01*
X7165Y12699D01*
X7129Y12680D01*
X7103Y12667D01*
X7086Y12660D01*
X7080Y12657D01*
X7031Y12637D01*
X6981Y12624D01*
X6935Y12611D01*
X6896Y12604D01*
X6860Y12601D01*
X6834Y12598D01*
X6817D01*
X6811D01*
X6762Y12601D01*
X6716Y12608D01*
X6670Y12614D01*
X6630Y12627D01*
X6552Y12660D01*
X6489Y12693D01*
X6460Y12713D01*
X6437Y12729D01*
X6414Y12745D01*
X6397Y12762D01*
X6384Y12775D01*
X6371Y12781D01*
X6368Y12788D01*
X6365Y12791D01*
X6332Y12827D01*
X6302Y12867D01*
X6279Y12909D01*
X6260Y12952D01*
X6227Y13037D01*
X6204Y13123D01*
X6197Y13159D01*
X6191Y13195D01*
X6188Y13228D01*
X6184Y13254D01*
X6181Y13277D01*
Y13309D01*
X6184Y13369D01*
X6188Y13424D01*
X6197Y13477D01*
X6207Y13526D01*
X6220Y13572D01*
X6233Y13615D01*
X6250Y13654D01*
X6266Y13690D01*
X6283Y13723D01*
X6299Y13749D01*
X6312Y13772D01*
X6325Y13792D01*
X6335Y13808D01*
X6345Y13818D01*
X6348Y13825D01*
X6352Y13828D01*
X6384Y13861D01*
X6420Y13890D01*
X6460Y13920D01*
X6499Y13943D01*
X6578Y13982D01*
X6657Y14008D01*
X6693Y14018D01*
X6729Y14028D01*
X6758Y14034D01*
X6785Y14041D01*
X6808Y14044D01*
X6824D01*
X6834Y14048D01*
X6837D01*
X6867Y13762D01*
X6791Y13756D01*
X6725Y13743D01*
X6667Y13723D01*
X6621Y13700D01*
X6581Y13680D01*
X6555Y13660D01*
X6539Y13647D01*
X6532Y13641D01*
X6493Y13592D01*
X6463Y13539D01*
X6440Y13483D01*
X6427Y13434D01*
X6417Y13388D01*
X6414Y13349D01*
X6411Y13336D01*
Y13316D01*
X6414Y13247D01*
X6427Y13185D01*
X6447Y13132D01*
X6466Y13086D01*
X6489Y13050D01*
X6506Y13027D01*
X6519Y13011D01*
X6525Y13004D01*
X6571Y12965D01*
X6617Y12936D01*
X6663Y12913D01*
X6709Y12900D01*
X6745Y12890D01*
X6778Y12886D01*
X6798Y12883D01*
X6801D01*
X6804D01*
X6863Y12890D01*
X6926Y12903D01*
X6981Y12926D01*
X7034Y12949D01*
X7077Y12975D01*
X7113Y12998D01*
X7126Y13004D01*
X7136Y13011D01*
X7139Y13018D01*
X7142D01*
X7178Y13044D01*
X7214Y13077D01*
X7254Y13113D01*
X7293Y13152D01*
X7372Y13234D01*
X7450Y13316D01*
X7486Y13359D01*
X7519Y13395D01*
X7549Y13431D01*
X7575Y13460D01*
X7595Y13483D01*
X7611Y13503D01*
X7621Y13516D01*
X7624Y13519D01*
X7693Y13601D01*
X7759Y13677D01*
X7818Y13739D01*
X7867Y13788D01*
X7910Y13831D01*
X7939Y13861D01*
X7959Y13877D01*
X7962Y13883D01*
X7965D01*
X8021Y13929D01*
X8074Y13965D01*
X8126Y13998D01*
X8172Y14025D01*
X8211Y14044D01*
X8241Y14057D01*
X8261Y14064D01*
X8264Y14067D01*
X8267D01*
X8303Y14080D01*
X8336Y14087D01*
X8369Y14093D01*
X8398Y14097D01*
X8425Y14100D01*
X8444D01*
X8457D01*
X8461D01*
Y12595D01*
D02*
G37*
G36*
X7457Y12293D02*
X7565Y12286D01*
X7664Y12276D01*
X7755Y12260D01*
X7841Y12244D01*
X7916Y12224D01*
X7985Y12204D01*
X8044Y12184D01*
X8097Y12165D01*
X8143Y12142D01*
X8182Y12125D01*
X8211Y12109D01*
X8238Y12093D01*
X8254Y12083D01*
X8264Y12076D01*
X8267Y12073D01*
X8307Y12037D01*
X8343Y11998D01*
X8375Y11955D01*
X8402Y11912D01*
X8425Y11870D01*
X8444Y11827D01*
X8457Y11784D01*
X8471Y11745D01*
X8480Y11706D01*
X8487Y11670D01*
X8493Y11637D01*
X8497Y11610D01*
X8500Y11587D01*
Y11555D01*
X8493Y11466D01*
X8480Y11384D01*
X8457Y11315D01*
X8434Y11256D01*
X8411Y11207D01*
X8398Y11191D01*
X8388Y11174D01*
X8382Y11161D01*
X8375Y11151D01*
X8369Y11148D01*
Y11145D01*
X8313Y11086D01*
X8254Y11037D01*
X8188Y10994D01*
X8129Y10961D01*
X8074Y10935D01*
X8051Y10922D01*
X8028Y10915D01*
X8011Y10909D01*
X7998Y10902D01*
X7992Y10899D01*
X7988D01*
X7939Y10882D01*
X7890Y10869D01*
X7785Y10849D01*
X7677Y10833D01*
X7572Y10823D01*
X7526Y10820D01*
X7483Y10817D01*
X7444D01*
X7408Y10813D01*
X7382D01*
X7359D01*
X7345D01*
X7342D01*
X7280D01*
X7221Y10817D01*
X7168D01*
X7116Y10820D01*
X7070Y10827D01*
X7024Y10830D01*
X6985Y10833D01*
X6949Y10840D01*
X6916Y10843D01*
X6886Y10849D01*
X6863Y10853D01*
X6844Y10856D01*
X6827Y10859D01*
X6817Y10863D01*
X6811Y10866D01*
X6808D01*
X6735Y10886D01*
X6670Y10909D01*
X6614Y10935D01*
X6565Y10954D01*
X6522Y10977D01*
X6493Y10991D01*
X6476Y11004D01*
X6470Y11007D01*
X6420Y11043D01*
X6378Y11079D01*
X6342Y11118D01*
X6309Y11155D01*
X6286Y11187D01*
X6270Y11214D01*
X6260Y11230D01*
X6256Y11233D01*
Y11237D01*
X6230Y11289D01*
X6214Y11345D01*
X6201Y11397D01*
X6191Y11446D01*
X6184Y11489D01*
X6181Y11525D01*
Y11555D01*
X6188Y11643D01*
X6201Y11725D01*
X6224Y11794D01*
X6247Y11853D01*
X6273Y11902D01*
X6283Y11922D01*
X6296Y11938D01*
X6302Y11952D01*
X6309Y11961D01*
X6316Y11965D01*
Y11968D01*
X6368Y12027D01*
X6430Y12076D01*
X6493Y12119D01*
X6552Y12152D01*
X6607Y12178D01*
X6630Y12191D01*
X6653Y12198D01*
X6670Y12204D01*
X6683Y12211D01*
X6689Y12214D01*
X6693D01*
X6742Y12227D01*
X6791Y12240D01*
X6899Y12260D01*
X7008Y12276D01*
X7109Y12286D01*
X7158Y12289D01*
X7201Y12293D01*
X7241D01*
X7277Y12296D01*
X7303D01*
X7326D01*
X7339D01*
X7342D01*
X7457Y12293D01*
D02*
G37*
G36*
X8461Y9065D02*
X8192D01*
Y10184D01*
X8136Y10144D01*
X8113Y10125D01*
X8090Y10108D01*
X8070Y10092D01*
X8057Y10079D01*
X8047Y10069D01*
X8044Y10066D01*
X8028Y10049D01*
X8011Y10029D01*
X7969Y9984D01*
X7919Y9931D01*
X7870Y9875D01*
X7828Y9823D01*
X7808Y9800D01*
X7788Y9780D01*
X7775Y9764D01*
X7765Y9751D01*
X7759Y9744D01*
X7755Y9741D01*
X7710Y9688D01*
X7667Y9636D01*
X7624Y9590D01*
X7588Y9547D01*
X7552Y9508D01*
X7519Y9475D01*
X7490Y9442D01*
X7463Y9416D01*
X7437Y9390D01*
X7418Y9370D01*
X7401Y9354D01*
X7385Y9337D01*
X7365Y9321D01*
X7359Y9314D01*
X7303Y9269D01*
X7254Y9229D01*
X7204Y9196D01*
X7165Y9170D01*
X7129Y9150D01*
X7103Y9137D01*
X7086Y9131D01*
X7080Y9127D01*
X7031Y9108D01*
X6981Y9095D01*
X6935Y9082D01*
X6896Y9075D01*
X6860Y9072D01*
X6834Y9069D01*
X6817D01*
X6811D01*
X6762Y9072D01*
X6716Y9078D01*
X6670Y9085D01*
X6630Y9098D01*
X6552Y9131D01*
X6489Y9164D01*
X6460Y9183D01*
X6437Y9200D01*
X6414Y9216D01*
X6397Y9233D01*
X6384Y9246D01*
X6371Y9252D01*
X6368Y9259D01*
X6365Y9262D01*
X6332Y9298D01*
X6302Y9337D01*
X6279Y9380D01*
X6260Y9423D01*
X6227Y9508D01*
X6204Y9593D01*
X6197Y9629D01*
X6191Y9665D01*
X6188Y9698D01*
X6184Y9725D01*
X6181Y9747D01*
Y9780D01*
X6184Y9839D01*
X6188Y9895D01*
X6197Y9947D01*
X6207Y9997D01*
X6220Y10043D01*
X6233Y10085D01*
X6250Y10125D01*
X6266Y10161D01*
X6283Y10193D01*
X6299Y10220D01*
X6312Y10243D01*
X6325Y10262D01*
X6335Y10279D01*
X6345Y10289D01*
X6348Y10295D01*
X6352Y10299D01*
X6384Y10331D01*
X6420Y10361D01*
X6460Y10390D01*
X6499Y10413D01*
X6578Y10453D01*
X6657Y10479D01*
X6693Y10489D01*
X6729Y10499D01*
X6758Y10505D01*
X6785Y10512D01*
X6808Y10515D01*
X6824D01*
X6834Y10518D01*
X6837D01*
X6867Y10233D01*
X6791Y10226D01*
X6725Y10213D01*
X6667Y10193D01*
X6621Y10171D01*
X6581Y10151D01*
X6555Y10131D01*
X6539Y10118D01*
X6532Y10112D01*
X6493Y10062D01*
X6463Y10010D01*
X6440Y9954D01*
X6427Y9905D01*
X6417Y9859D01*
X6414Y9820D01*
X6411Y9806D01*
Y9787D01*
X6414Y9718D01*
X6427Y9656D01*
X6447Y9603D01*
X6466Y9557D01*
X6489Y9521D01*
X6506Y9498D01*
X6519Y9482D01*
X6525Y9475D01*
X6571Y9436D01*
X6617Y9406D01*
X6663Y9383D01*
X6709Y9370D01*
X6745Y9360D01*
X6778Y9357D01*
X6798Y9354D01*
X6801D01*
X6804D01*
X6863Y9360D01*
X6926Y9374D01*
X6981Y9397D01*
X7034Y9419D01*
X7077Y9446D01*
X7113Y9469D01*
X7126Y9475D01*
X7136Y9482D01*
X7139Y9488D01*
X7142D01*
X7178Y9515D01*
X7214Y9547D01*
X7254Y9583D01*
X7293Y9623D01*
X7372Y9705D01*
X7450Y9787D01*
X7486Y9829D01*
X7519Y9866D01*
X7549Y9902D01*
X7575Y9931D01*
X7595Y9954D01*
X7611Y9974D01*
X7621Y9987D01*
X7624Y9990D01*
X7693Y10072D01*
X7759Y10148D01*
X7818Y10210D01*
X7867Y10259D01*
X7910Y10302D01*
X7939Y10331D01*
X7959Y10348D01*
X7962Y10354D01*
X7965D01*
X8021Y10400D01*
X8074Y10436D01*
X8126Y10469D01*
X8172Y10495D01*
X8211Y10515D01*
X8241Y10528D01*
X8261Y10535D01*
X8264Y10538D01*
X8267D01*
X8303Y10551D01*
X8336Y10558D01*
X8369Y10564D01*
X8398Y10567D01*
X8425Y10571D01*
X8444D01*
X8457D01*
X8461D01*
Y9065D01*
D02*
G37*
G36*
X7913Y8757D02*
X7962Y8747D01*
X8054Y8717D01*
X8133Y8681D01*
X8165Y8662D01*
X8198Y8642D01*
X8228Y8622D01*
X8251Y8603D01*
X8274Y8586D01*
X8290Y8570D01*
X8303Y8560D01*
X8313Y8550D01*
X8320Y8544D01*
X8323Y8540D01*
X8352Y8501D01*
X8382Y8462D01*
X8405Y8422D01*
X8425Y8380D01*
X8457Y8298D01*
X8477Y8219D01*
X8484Y8183D01*
X8490Y8150D01*
X8493Y8121D01*
X8497Y8094D01*
X8500Y8075D01*
Y8045D01*
X8497Y7983D01*
X8490Y7927D01*
X8480Y7871D01*
X8467Y7819D01*
X8451Y7770D01*
X8434Y7727D01*
X8415Y7684D01*
X8395Y7648D01*
X8379Y7612D01*
X8359Y7583D01*
X8343Y7556D01*
X8326Y7537D01*
X8313Y7520D01*
X8303Y7507D01*
X8297Y7501D01*
X8293Y7497D01*
X8254Y7458D01*
X8211Y7425D01*
X8169Y7396D01*
X8126Y7369D01*
X8087Y7350D01*
X8044Y7330D01*
X7965Y7304D01*
X7929Y7297D01*
X7897Y7291D01*
X7867Y7284D01*
X7841Y7281D01*
X7821Y7278D01*
X7805D01*
X7795D01*
X7791D01*
X7713Y7281D01*
X7641Y7294D01*
X7578Y7314D01*
X7526Y7333D01*
X7483Y7353D01*
X7450Y7373D01*
X7431Y7386D01*
X7424Y7389D01*
X7375Y7435D01*
X7332Y7484D01*
X7299Y7537D01*
X7273Y7589D01*
X7254Y7635D01*
X7241Y7671D01*
X7237Y7684D01*
X7234Y7694D01*
X7231Y7701D01*
Y7704D01*
X7201Y7648D01*
X7172Y7602D01*
X7139Y7563D01*
X7109Y7530D01*
X7083Y7504D01*
X7060Y7484D01*
X7047Y7474D01*
X7040Y7471D01*
X6995Y7445D01*
X6949Y7425D01*
X6903Y7409D01*
X6860Y7399D01*
X6824Y7392D01*
X6798Y7389D01*
X6778D01*
X6771D01*
X6716Y7392D01*
X6660Y7402D01*
X6611Y7415D01*
X6568Y7432D01*
X6532Y7448D01*
X6503Y7461D01*
X6486Y7471D01*
X6480Y7474D01*
X6430Y7507D01*
X6388Y7547D01*
X6352Y7586D01*
X6319Y7625D01*
X6296Y7658D01*
X6276Y7688D01*
X6266Y7707D01*
X6263Y7711D01*
Y7714D01*
X6237Y7773D01*
X6217Y7832D01*
X6201Y7891D01*
X6191Y7943D01*
X6184Y7986D01*
X6181Y8022D01*
Y8104D01*
X6188Y8150D01*
X6204Y8239D01*
X6230Y8314D01*
X6256Y8380D01*
X6273Y8409D01*
X6286Y8432D01*
X6299Y8455D01*
X6312Y8472D01*
X6322Y8485D01*
X6329Y8495D01*
X6332Y8501D01*
X6335Y8504D01*
X6397Y8567D01*
X6466Y8616D01*
X6539Y8655D01*
X6611Y8688D01*
X6673Y8708D01*
X6699Y8717D01*
X6722Y8724D01*
X6742Y8727D01*
X6755Y8731D01*
X6765Y8734D01*
X6768D01*
X6817Y8455D01*
X6745Y8442D01*
X6683Y8422D01*
X6630Y8399D01*
X6588Y8376D01*
X6555Y8353D01*
X6532Y8334D01*
X6516Y8321D01*
X6512Y8317D01*
X6480Y8275D01*
X6453Y8229D01*
X6437Y8186D01*
X6424Y8144D01*
X6417Y8104D01*
X6411Y8075D01*
Y8048D01*
X6414Y7989D01*
X6427Y7937D01*
X6443Y7891D01*
X6460Y7852D01*
X6480Y7822D01*
X6496Y7799D01*
X6509Y7783D01*
X6512Y7779D01*
X6552Y7743D01*
X6594Y7717D01*
X6637Y7701D01*
X6676Y7688D01*
X6712Y7681D01*
X6739Y7675D01*
X6758D01*
X6762D01*
X6765D01*
X6801D01*
X6834Y7681D01*
X6889Y7697D01*
X6939Y7720D01*
X6981Y7747D01*
X7011Y7773D01*
X7034Y7796D01*
X7047Y7812D01*
X7050Y7816D01*
Y7819D01*
X7080Y7875D01*
X7103Y7927D01*
X7119Y7983D01*
X7129Y8032D01*
X7136Y8075D01*
X7142Y8111D01*
Y8153D01*
X7139Y8167D01*
Y8183D01*
X7385Y8216D01*
X7375Y8173D01*
X7368Y8134D01*
X7362Y8101D01*
X7359Y8071D01*
X7355Y8048D01*
Y8019D01*
X7362Y7950D01*
X7375Y7888D01*
X7395Y7832D01*
X7418Y7786D01*
X7441Y7750D01*
X7460Y7724D01*
X7473Y7707D01*
X7480Y7701D01*
X7529Y7658D01*
X7582Y7625D01*
X7634Y7602D01*
X7687Y7589D01*
X7729Y7579D01*
X7765Y7576D01*
X7778Y7573D01*
X7788D01*
X7795D01*
X7798D01*
X7870Y7579D01*
X7936Y7596D01*
X7992Y7615D01*
X8041Y7642D01*
X8080Y7668D01*
X8110Y7688D01*
X8129Y7704D01*
X8136Y7711D01*
X8182Y7763D01*
X8215Y7819D01*
X8238Y7875D01*
X8254Y7927D01*
X8264Y7973D01*
X8267Y8009D01*
X8270Y8022D01*
Y8042D01*
X8267Y8101D01*
X8254Y8157D01*
X8238Y8206D01*
X8218Y8245D01*
X8202Y8278D01*
X8185Y8304D01*
X8172Y8317D01*
X8169Y8324D01*
X8123Y8363D01*
X8070Y8396D01*
X8015Y8426D01*
X7955Y8449D01*
X7906Y8465D01*
X7883Y8472D01*
X7864Y8475D01*
X7847Y8478D01*
X7834Y8481D01*
X7828Y8485D01*
X7824D01*
X7860Y8763D01*
X7913Y8757D01*
D02*
G37*
G36*
X7001Y6740D02*
X6978Y6690D01*
X6955Y6641D01*
X6932Y6595D01*
X6912Y6556D01*
X6896Y6523D01*
X6883Y6504D01*
X6880Y6500D01*
Y6497D01*
X6844Y6438D01*
X6808Y6385D01*
X6775Y6340D01*
X6745Y6303D01*
X6722Y6271D01*
X6703Y6251D01*
X6689Y6235D01*
X6686Y6231D01*
X8461D01*
Y5953D01*
X6181D01*
Y6133D01*
X6237Y6166D01*
X6289Y6202D01*
X6342Y6244D01*
X6388Y6284D01*
X6427Y6323D01*
X6460Y6353D01*
X6470Y6366D01*
X6480Y6376D01*
X6483Y6379D01*
X6486Y6382D01*
X6542Y6451D01*
X6594Y6520D01*
X6640Y6585D01*
X6676Y6651D01*
X6709Y6707D01*
X6722Y6730D01*
X6732Y6750D01*
X6742Y6766D01*
X6745Y6779D01*
X6752Y6786D01*
Y6789D01*
X7021D01*
X7001Y6740D01*
D02*
G37*
G36*
Y4975D02*
X6978Y4926D01*
X6955Y4877D01*
X6932Y4831D01*
X6912Y4791D01*
X6896Y4759D01*
X6883Y4739D01*
X6880Y4736D01*
Y4732D01*
X6844Y4673D01*
X6808Y4621D01*
X6775Y4575D01*
X6745Y4539D01*
X6722Y4506D01*
X6703Y4486D01*
X6689Y4470D01*
X6686Y4467D01*
X8461D01*
Y4188D01*
X6181D01*
Y4368D01*
X6237Y4401D01*
X6289Y4437D01*
X6342Y4480D01*
X6388Y4519D01*
X6427Y4558D01*
X6460Y4588D01*
X6470Y4601D01*
X6480Y4611D01*
X6483Y4614D01*
X6486Y4617D01*
X6542Y4686D01*
X6594Y4755D01*
X6640Y4821D01*
X6676Y4887D01*
X6709Y4942D01*
X6722Y4965D01*
X6732Y4985D01*
X6742Y5001D01*
X6745Y5014D01*
X6752Y5021D01*
Y5024D01*
X7021D01*
X7001Y4975D01*
D02*
G37*
G36*
Y3210D02*
X6978Y3161D01*
X6955Y3112D01*
X6932Y3066D01*
X6912Y3027D01*
X6896Y2994D01*
X6883Y2974D01*
X6880Y2971D01*
Y2968D01*
X6844Y2909D01*
X6808Y2856D01*
X6775Y2810D01*
X6745Y2774D01*
X6722Y2741D01*
X6703Y2722D01*
X6689Y2705D01*
X6686Y2702D01*
X8461D01*
Y2423D01*
X6181D01*
Y2604D01*
X6237Y2636D01*
X6289Y2672D01*
X6342Y2715D01*
X6388Y2754D01*
X6427Y2794D01*
X6460Y2823D01*
X6470Y2836D01*
X6480Y2846D01*
X6483Y2850D01*
X6486Y2853D01*
X6542Y2922D01*
X6594Y2991D01*
X6640Y3056D01*
X6676Y3122D01*
X6709Y3178D01*
X6722Y3201D01*
X6732Y3220D01*
X6742Y3237D01*
X6745Y3250D01*
X6752Y3256D01*
Y3260D01*
X7021D01*
X7001Y3210D01*
D02*
G37*
G36*
X7913Y1698D02*
X7962Y1688D01*
X8054Y1659D01*
X8133Y1623D01*
X8165Y1603D01*
X8198Y1584D01*
X8228Y1564D01*
X8251Y1544D01*
X8274Y1528D01*
X8290Y1511D01*
X8303Y1501D01*
X8313Y1492D01*
X8320Y1485D01*
X8323Y1482D01*
X8352Y1443D01*
X8382Y1403D01*
X8405Y1364D01*
X8425Y1321D01*
X8457Y1239D01*
X8477Y1160D01*
X8484Y1124D01*
X8490Y1091D01*
X8493Y1062D01*
X8497Y1036D01*
X8500Y1016D01*
Y987D01*
X8497Y924D01*
X8490Y869D01*
X8480Y813D01*
X8467Y760D01*
X8451Y711D01*
X8434Y668D01*
X8415Y626D01*
X8395Y590D01*
X8379Y554D01*
X8359Y524D01*
X8343Y498D01*
X8326Y478D01*
X8313Y462D01*
X8303Y449D01*
X8297Y442D01*
X8293Y439D01*
X8254Y399D01*
X8211Y367D01*
X8169Y337D01*
X8126Y311D01*
X8087Y291D01*
X8044Y271D01*
X7965Y245D01*
X7929Y239D01*
X7897Y232D01*
X7867Y226D01*
X7841Y222D01*
X7821Y219D01*
X7805D01*
X7795D01*
X7791D01*
X7713Y222D01*
X7641Y235D01*
X7578Y255D01*
X7526Y275D01*
X7483Y295D01*
X7450Y314D01*
X7431Y327D01*
X7424Y331D01*
X7375Y377D01*
X7332Y426D01*
X7299Y478D01*
X7273Y531D01*
X7254Y577D01*
X7241Y613D01*
X7237Y626D01*
X7234Y636D01*
X7231Y642D01*
Y645D01*
X7201Y590D01*
X7172Y544D01*
X7139Y504D01*
X7109Y472D01*
X7083Y445D01*
X7060Y426D01*
X7047Y416D01*
X7040Y413D01*
X6995Y386D01*
X6949Y367D01*
X6903Y350D01*
X6860Y340D01*
X6824Y334D01*
X6798Y331D01*
X6778D01*
X6771D01*
X6716Y334D01*
X6660Y344D01*
X6611Y357D01*
X6568Y373D01*
X6532Y390D01*
X6503Y403D01*
X6486Y413D01*
X6480Y416D01*
X6430Y449D01*
X6388Y488D01*
X6352Y527D01*
X6319Y567D01*
X6296Y599D01*
X6276Y629D01*
X6266Y649D01*
X6263Y652D01*
Y655D01*
X6237Y714D01*
X6217Y773D01*
X6201Y832D01*
X6191Y885D01*
X6184Y927D01*
X6181Y964D01*
Y1046D01*
X6188Y1091D01*
X6204Y1180D01*
X6230Y1256D01*
X6256Y1321D01*
X6273Y1351D01*
X6286Y1374D01*
X6299Y1397D01*
X6312Y1413D01*
X6322Y1426D01*
X6329Y1436D01*
X6332Y1443D01*
X6335Y1446D01*
X6397Y1508D01*
X6466Y1557D01*
X6539Y1597D01*
X6611Y1629D01*
X6673Y1649D01*
X6699Y1659D01*
X6722Y1665D01*
X6742Y1669D01*
X6755Y1672D01*
X6765Y1675D01*
X6768D01*
X6817Y1397D01*
X6745Y1383D01*
X6683Y1364D01*
X6630Y1341D01*
X6588Y1318D01*
X6555Y1295D01*
X6532Y1275D01*
X6516Y1262D01*
X6512Y1259D01*
X6480Y1216D01*
X6453Y1170D01*
X6437Y1128D01*
X6424Y1085D01*
X6417Y1046D01*
X6411Y1016D01*
Y990D01*
X6414Y931D01*
X6427Y878D01*
X6443Y832D01*
X6460Y793D01*
X6480Y764D01*
X6496Y741D01*
X6509Y724D01*
X6512Y721D01*
X6552Y685D01*
X6594Y659D01*
X6637Y642D01*
X6676Y629D01*
X6712Y623D01*
X6739Y616D01*
X6758D01*
X6762D01*
X6765D01*
X6801D01*
X6834Y623D01*
X6889Y639D01*
X6939Y662D01*
X6981Y688D01*
X7011Y714D01*
X7034Y737D01*
X7047Y754D01*
X7050Y757D01*
Y760D01*
X7080Y816D01*
X7103Y869D01*
X7119Y924D01*
X7129Y973D01*
X7136Y1016D01*
X7142Y1052D01*
Y1095D01*
X7139Y1108D01*
Y1124D01*
X7385Y1157D01*
X7375Y1115D01*
X7368Y1075D01*
X7362Y1042D01*
X7359Y1013D01*
X7355Y990D01*
Y960D01*
X7362Y891D01*
X7375Y829D01*
X7395Y773D01*
X7418Y727D01*
X7441Y691D01*
X7460Y665D01*
X7473Y649D01*
X7480Y642D01*
X7529Y599D01*
X7582Y567D01*
X7634Y544D01*
X7687Y531D01*
X7729Y521D01*
X7765Y518D01*
X7778Y514D01*
X7788D01*
X7795D01*
X7798D01*
X7870Y521D01*
X7936Y537D01*
X7992Y557D01*
X8041Y583D01*
X8080Y609D01*
X8110Y629D01*
X8129Y645D01*
X8136Y652D01*
X8182Y704D01*
X8215Y760D01*
X8238Y816D01*
X8254Y869D01*
X8264Y914D01*
X8267Y950D01*
X8270Y964D01*
Y983D01*
X8267Y1042D01*
X8254Y1098D01*
X8238Y1147D01*
X8218Y1187D01*
X8202Y1219D01*
X8185Y1246D01*
X8172Y1259D01*
X8169Y1265D01*
X8123Y1305D01*
X8070Y1338D01*
X8015Y1367D01*
X7955Y1390D01*
X7906Y1406D01*
X7883Y1413D01*
X7864Y1416D01*
X7847Y1419D01*
X7834Y1423D01*
X7828Y1426D01*
X7824D01*
X7860Y1705D01*
X7913Y1698D01*
D02*
G37*
%LPC*%
G36*
X3595Y10469D02*
X3565D01*
X3549D01*
X3542D01*
X3441Y10465D01*
X3349Y10462D01*
X3263Y10456D01*
X3185Y10446D01*
X3116Y10436D01*
X3053Y10423D01*
X2998Y10410D01*
X2949Y10397D01*
X2906Y10384D01*
X2870Y10374D01*
X2840Y10361D01*
X2814Y10351D01*
X2798Y10341D01*
X2785Y10334D01*
X2778Y10328D01*
X2775D01*
X2745Y10305D01*
X2719Y10282D01*
X2699Y10256D01*
X2679Y10229D01*
X2650Y10177D01*
X2630Y10128D01*
X2620Y10085D01*
X2614Y10049D01*
X2611Y10036D01*
Y10016D01*
X2614Y9980D01*
X2617Y9944D01*
X2627Y9911D01*
X2640Y9882D01*
X2670Y9826D01*
X2702Y9777D01*
X2739Y9741D01*
X2768Y9711D01*
X2781Y9701D01*
X2791Y9695D01*
X2794Y9688D01*
X2798D01*
X2837Y9665D01*
X2883Y9646D01*
X2935Y9626D01*
X2991Y9613D01*
X3050Y9600D01*
X3112Y9590D01*
X3237Y9573D01*
X3299Y9567D01*
X3355Y9563D01*
X3408Y9560D01*
X3450D01*
X3490Y9557D01*
X3519D01*
X3536D01*
X3539D01*
X3542D01*
X3644D01*
X3736Y9563D01*
X3818Y9570D01*
X3896Y9577D01*
X3962Y9586D01*
X4024Y9600D01*
X4077Y9613D01*
X4126Y9623D01*
X4165Y9636D01*
X4198Y9649D01*
X4228Y9659D01*
X4251Y9672D01*
X4267Y9678D01*
X4277Y9685D01*
X4283Y9691D01*
X4287D01*
X4320Y9718D01*
X4346Y9744D01*
X4372Y9770D01*
X4392Y9796D01*
X4425Y9852D01*
X4447Y9901D01*
X4461Y9947D01*
X4467Y9980D01*
X4470Y9993D01*
Y10013D01*
X4467Y10049D01*
X4464Y10082D01*
X4441Y10144D01*
X4411Y10200D01*
X4379Y10249D01*
X4346Y10285D01*
X4316Y10315D01*
X4293Y10331D01*
X4290Y10338D01*
X4287D01*
X4247Y10361D01*
X4201Y10380D01*
X4149Y10400D01*
X4093Y10413D01*
X4034Y10426D01*
X3972Y10436D01*
X3844Y10452D01*
X3785Y10459D01*
X3729Y10462D01*
X3677Y10465D01*
X3634D01*
X3595Y10469D01*
D02*
G37*
G36*
X7395Y12011D02*
X7365D01*
X7349D01*
X7342D01*
X7241Y12007D01*
X7149Y12004D01*
X7063Y11998D01*
X6985Y11988D01*
X6916Y11978D01*
X6853Y11965D01*
X6798Y11952D01*
X6748Y11938D01*
X6706Y11925D01*
X6670Y11915D01*
X6640Y11902D01*
X6614Y11893D01*
X6598Y11883D01*
X6584Y11876D01*
X6578Y11870D01*
X6575D01*
X6545Y11847D01*
X6519Y11824D01*
X6499Y11797D01*
X6480Y11771D01*
X6450Y11719D01*
X6430Y11670D01*
X6420Y11627D01*
X6414Y11591D01*
X6411Y11578D01*
Y11558D01*
X6414Y11522D01*
X6417Y11486D01*
X6427Y11453D01*
X6440Y11423D01*
X6470Y11368D01*
X6503Y11319D01*
X6539Y11282D01*
X6568Y11253D01*
X6581Y11243D01*
X6591Y11237D01*
X6594Y11230D01*
X6598D01*
X6637Y11207D01*
X6683Y11187D01*
X6735Y11168D01*
X6791Y11155D01*
X6850Y11141D01*
X6912Y11132D01*
X7037Y11115D01*
X7099Y11109D01*
X7155Y11105D01*
X7208Y11102D01*
X7250D01*
X7290Y11099D01*
X7319D01*
X7336D01*
X7339D01*
X7342D01*
X7444D01*
X7536Y11105D01*
X7618Y11112D01*
X7696Y11118D01*
X7762Y11128D01*
X7824Y11141D01*
X7877Y11155D01*
X7926Y11164D01*
X7965Y11178D01*
X7998Y11191D01*
X8028Y11201D01*
X8051Y11214D01*
X8067Y11220D01*
X8077Y11227D01*
X8083Y11233D01*
X8087D01*
X8119Y11259D01*
X8146Y11286D01*
X8172Y11312D01*
X8192Y11338D01*
X8224Y11394D01*
X8247Y11443D01*
X8261Y11489D01*
X8267Y11522D01*
X8270Y11535D01*
Y11555D01*
X8267Y11591D01*
X8264Y11624D01*
X8241Y11686D01*
X8211Y11742D01*
X8179Y11791D01*
X8146Y11827D01*
X8116Y11857D01*
X8093Y11873D01*
X8090Y11879D01*
X8087D01*
X8047Y11902D01*
X8001Y11922D01*
X7949Y11942D01*
X7893Y11955D01*
X7834Y11968D01*
X7772Y11978D01*
X7644Y11994D01*
X7585Y12001D01*
X7529Y12004D01*
X7477Y12007D01*
X7434D01*
X7395Y12011D01*
D02*
G37*
%LPD*%
M02*
